<?xml version="1.0" encoding="utf-8" standalone="no"?>
<!DOCTYPE svg PUBLIC "-//W3C//DTD SVG 1.1//EN"
  "http://www.w3.org/Graphics/SVG/1.1/DTD/svg11.dtd">
<svg xmlns:xlink="http://www.w3.org/1999/xlink" width="720pt" height="504pt" viewBox="0 0 720 504" xmlns="http://www.w3.org/2000/svg" version="1.1">
 <metadata>
  <rdf:RDF xmlns:dc="http://purl.org/dc/elements/1.1/" xmlns:cc="http://creativecommons.org/ns#" xmlns:rdf="http://www.w3.org/1999/02/22-rdf-syntax-ns#">
   <cc:Work>
    <dc:type rdf:resource="http://purl.org/dc/dcmitype/StillImage"/>
    <dc:date>2025-05-18T19:23:08.347050</dc:date>
    <dc:format>image/svg+xml</dc:format>
    <dc:creator>
     <cc:Agent>
      <dc:title>Matplotlib v3.9.2, https://matplotlib.org/</dc:title>
     </cc:Agent>
    </dc:creator>
   </cc:Work>
  </rdf:RDF>
 </metadata>
 <defs>
  <style type="text/css">*{stroke-linejoin: round; stroke-linecap: butt}</style>
 </defs>
 <g id="figure_1">
  <g id="patch_1">
   <path d="M 0 504 
L 720 504 
L 720 0 
L 0 0 
z
" style="fill: #ffffff"/>
  </g>
  <g id="axes_1">
   <g id="patch_2">
    <path d="M 90 448.56 
L 648 448.56 
L 648 60.48 
L 90 60.48 
L 90 448.56 
z
" style="fill: none; opacity: 0"/>
   </g>
   <g id="patch_3">
    <path d="M 90 249.563849 
L 648 249.563849 
L 648 218.884823 
L 90 218.884823 
z
" clip-path="url(#pa12a85af6f)" style="fill: #6495ed; opacity: 0.2"/>
   </g>
   <g id="patch_4">
    <path d="M 90 130.787162 
L 648 130.787162 
L 648 78.12 
L 90 78.12 
z
" clip-path="url(#pa12a85af6f)" style="fill: #ff7f50; opacity: 0.2"/>
   </g>
   <g id="patch_5">
    <path d="M 90 390.328672 
L 648 390.328672 
L 648 337.661511 
L 90 337.661511 
z
" clip-path="url(#pa12a85af6f)" style="fill: #ff7f50; opacity: 0.2"/>
   </g>
   <g id="PathCollection_1">
    <defs>
     <path id="m3eb2701539" d="M 0 3 
C 0.795609 3 1.55874 2.683901 2.12132 2.12132 
C 2.683901 1.55874 3 0.795609 3 0 
C 3 -0.795609 2.683901 -1.55874 2.12132 -2.12132 
C 1.55874 -2.683901 0.795609 -3 0 -3 
C -0.795609 -3 -1.55874 -2.683901 -2.12132 -2.12132 
C -2.683901 -1.55874 -3 -0.795609 -3 0 
C -3 0.795609 -2.683901 1.55874 -2.12132 2.12132 
C -1.55874 2.683901 -0.795609 3 0 3 
z
" style="stroke: #6495ed; stroke-opacity: 0.5"/>
    </defs>
    <g clip-path="url(#pa12a85af6f)">
     <use xlink:href="#m3eb2701539" x="309.872868" y="200.102695" style="fill: #6495ed; fill-opacity: 0.5; stroke: #6495ed; stroke-opacity: 0.5"/>
     <use xlink:href="#m3eb2701539" x="386.652828" y="235.075014" style="fill: #6495ed; fill-opacity: 0.5; stroke: #6495ed; stroke-opacity: 0.5"/>
     <use xlink:href="#m3eb2701539" x="370.246854" y="218.754599" style="fill: #6495ed; fill-opacity: 0.5; stroke: #6495ed; stroke-opacity: 0.5"/>
     <use xlink:href="#m3eb2701539" x="370.115606" y="209.894945" style="fill: #6495ed; fill-opacity: 0.5; stroke: #6495ed; stroke-opacity: 0.5"/>
     <use xlink:href="#m3eb2701539" x="368.671881" y="224.35017" style="fill: #6495ed; fill-opacity: 0.5; stroke: #6495ed; stroke-opacity: 0.5"/>
     <use xlink:href="#m3eb2701539" x="530.894155" y="272.845119" style="fill: #6495ed; fill-opacity: 0.5; stroke: #6495ed; stroke-opacity: 0.5"/>
     <use xlink:href="#m3eb2701539" x="538.637775" y="273.311416" style="fill: #6495ed; fill-opacity: 0.5; stroke: #6495ed; stroke-opacity: 0.5"/>
     <use xlink:href="#m3eb2701539" x="529.97542" y="266.78325" style="fill: #6495ed; fill-opacity: 0.5; stroke: #6495ed; stroke-opacity: 0.5"/>
     <use xlink:href="#m3eb2701539" x="554.38751" y="263.985464" style="fill: #6495ed; fill-opacity: 0.5; stroke: #6495ed; stroke-opacity: 0.5"/>
     <use xlink:href="#m3eb2701539" x="559.899918" y="272.378821" style="fill: #6495ed; fill-opacity: 0.5; stroke: #6495ed; stroke-opacity: 0.5"/>
     <use xlink:href="#m3eb2701539" x="141.481948" y="173.523733" style="fill: #6495ed; fill-opacity: 0.5; stroke: #6495ed; stroke-opacity: 0.5"/>
     <use xlink:href="#m3eb2701539" x="177.181348" y="186.580065" style="fill: #6495ed; fill-opacity: 0.5; stroke: #6495ed; stroke-opacity: 0.5"/>
     <use xlink:href="#m3eb2701539" x="184.662472" y="187.978958" style="fill: #6495ed; fill-opacity: 0.5; stroke: #6495ed; stroke-opacity: 0.5"/>
     <use xlink:href="#m3eb2701539" x="165.894037" y="180.051899" style="fill: #6495ed; fill-opacity: 0.5; stroke: #6495ed; stroke-opacity: 0.5"/>
     <use xlink:href="#m3eb2701539" x="187.812419" y="186.113768" style="fill: #6495ed; fill-opacity: 0.5; stroke: #6495ed; stroke-opacity: 0.5"/>
     <use xlink:href="#m3eb2701539" x="277.848406" y="211.293837" style="fill: #6495ed; fill-opacity: 0.5; stroke: #6495ed; stroke-opacity: 0.5"/>
     <use xlink:href="#m3eb2701539" x="296.879337" y="218.288301" style="fill: #6495ed; fill-opacity: 0.5; stroke: #6495ed; stroke-opacity: 0.5"/>
     <use xlink:href="#m3eb2701539" x="310.922851" y="215.024218" style="fill: #6495ed; fill-opacity: 0.5; stroke: #6495ed; stroke-opacity: 0.5"/>
     <use xlink:href="#m3eb2701539" x="322.078913" y="212.69273" style="fill: #6495ed; fill-opacity: 0.5; stroke: #6495ed; stroke-opacity: 0.5"/>
     <use xlink:href="#m3eb2701539" x="314.466541" y="221.086087" style="fill: #6495ed; fill-opacity: 0.5; stroke: #6495ed; stroke-opacity: 0.5"/>
     <use xlink:href="#m3eb2701539" x="456.21416" y="258.389893" style="fill: #6495ed; fill-opacity: 0.5; stroke: #6495ed; stroke-opacity: 0.5"/>
     <use xlink:href="#m3eb2701539" x="465.795249" y="261.653977" style="fill: #6495ed; fill-opacity: 0.5; stroke: #6495ed; stroke-opacity: 0.5"/>
     <use xlink:href="#m3eb2701539" x="462.251558" y="246.266156" style="fill: #6495ed; fill-opacity: 0.5; stroke: #6495ed; stroke-opacity: 0.5"/>
     <use xlink:href="#m3eb2701539" x="460.676585" y="261.187679" style="fill: #6495ed; fill-opacity: 0.5; stroke: #6495ed; stroke-opacity: 0.5"/>
     <use xlink:href="#m3eb2701539" x="452.801717" y="251.861727" style="fill: #6495ed; fill-opacity: 0.5; stroke: #6495ed; stroke-opacity: 0.5"/>
     <use xlink:href="#m3eb2701539" x="256.586264" y="193.574529" style="fill: #6495ed; fill-opacity: 0.5; stroke: #6495ed; stroke-opacity: 0.5"/>
     <use xlink:href="#m3eb2701539" x="255.536281" y="197.30491" style="fill: #6495ed; fill-opacity: 0.5; stroke: #6495ed; stroke-opacity: 0.5"/>
     <use xlink:href="#m3eb2701539" x="246.873927" y="200.102695" style="fill: #6495ed; fill-opacity: 0.5; stroke: #6495ed; stroke-opacity: 0.5"/>
     <use xlink:href="#m3eb2701539" x="267.873574" y="200.102695" style="fill: #6495ed; fill-opacity: 0.5; stroke: #6495ed; stroke-opacity: 0.5"/>
     <use xlink:href="#m3eb2701539" x="271.023521" y="216.889408" style="fill: #6495ed; fill-opacity: 0.5; stroke: #6495ed; stroke-opacity: 0.5"/>
     <use xlink:href="#m3eb2701539" x="374.971775" y="220.619789" style="fill: #6495ed; fill-opacity: 0.5; stroke: #6495ed; stroke-opacity: 0.5"/>
     <use xlink:href="#m3eb2701539" x="364.209455" y="212.226432" style="fill: #6495ed; fill-opacity: 0.5; stroke: #6495ed; stroke-opacity: 0.5"/>
     <use xlink:href="#m3eb2701539" x="400.958838" y="221.552384" style="fill: #6495ed; fill-opacity: 0.5; stroke: #6495ed; stroke-opacity: 0.5"/>
     <use xlink:href="#m3eb2701539" x="403.583794" y="221.552384" style="fill: #6495ed; fill-opacity: 0.5; stroke: #6495ed; stroke-opacity: 0.5"/>
     <use xlink:href="#m3eb2701539" x="422.352229" y="220.153491" style="fill: #6495ed; fill-opacity: 0.5; stroke: #6495ed; stroke-opacity: 0.5"/>
     <use xlink:href="#m3eb2701539" x="512.256968" y="208.496052" style="fill: #6495ed; fill-opacity: 0.5; stroke: #6495ed; stroke-opacity: 0.5"/>
     <use xlink:href="#m3eb2701539" x="551.631307" y="217.822004" style="fill: #6495ed; fill-opacity: 0.5; stroke: #6495ed; stroke-opacity: 0.5"/>
     <use xlink:href="#m3eb2701539" x="560.424909" y="195.906017" style="fill: #6495ed; fill-opacity: 0.5; stroke: #6495ed; stroke-opacity: 0.5"/>
     <use xlink:href="#m3eb2701539" x="549.006351" y="217.822004" style="fill: #6495ed; fill-opacity: 0.5; stroke: #6495ed; stroke-opacity: 0.5"/>
     <use xlink:href="#m3eb2701539" x="590.086911" y="202.434183" style="fill: #6495ed; fill-opacity: 0.5; stroke: #6495ed; stroke-opacity: 0.5"/>
     <use xlink:href="#m3eb2701539" x="128.22592" y="155.338127" style="fill: #6495ed; fill-opacity: 0.5; stroke: #6495ed; stroke-opacity: 0.5"/>
     <use xlink:href="#m3eb2701539" x="115.363636" y="163.731484" style="fill: #6495ed; fill-opacity: 0.5; stroke: #6495ed; stroke-opacity: 0.5"/>
     <use xlink:href="#m3eb2701539" x="117.726097" y="164.664079" style="fill: #6495ed; fill-opacity: 0.5; stroke: #6495ed; stroke-opacity: 0.5"/>
     <use xlink:href="#m3eb2701539" x="143.975656" y="155.338127" style="fill: #6495ed; fill-opacity: 0.5; stroke: #6495ed; stroke-opacity: 0.5"/>
     <use xlink:href="#m3eb2701539" x="170.356462" y="164.197781" style="fill: #6495ed; fill-opacity: 0.5; stroke: #6495ed; stroke-opacity: 0.5"/>
     <use xlink:href="#m3eb2701539" x="436.001999" y="339.525673" style="fill: #6495ed; fill-opacity: 0.5; stroke: #6495ed; stroke-opacity: 0.5"/>
     <use xlink:href="#m3eb2701539" x="453.457956" y="342.789756" style="fill: #6495ed; fill-opacity: 0.5; stroke: #6495ed; stroke-opacity: 0.5"/>
     <use xlink:href="#m3eb2701539" x="470.388922" y="357.244982" style="fill: #6495ed; fill-opacity: 0.5; stroke: #6495ed; stroke-opacity: 0.5"/>
     <use xlink:href="#m3eb2701539" x="464.876514" y="348.851625" style="fill: #6495ed; fill-opacity: 0.5; stroke: #6495ed; stroke-opacity: 0.5"/>
     <use xlink:href="#m3eb2701539" x="468.026461" y="356.312386" style="fill: #6495ed; fill-opacity: 0.5; stroke: #6495ed; stroke-opacity: 0.5"/>
     <use xlink:href="#m3eb2701539" x="582.605786" y="396.880276" style="fill: #6495ed; fill-opacity: 0.5; stroke: #6495ed; stroke-opacity: 0.5"/>
     <use xlink:href="#m3eb2701539" x="581.555804" y="400.610657" style="fill: #6495ed; fill-opacity: 0.5; stroke: #6495ed; stroke-opacity: 0.5"/>
     <use xlink:href="#m3eb2701539" x="614.499" y="404.807335" style="fill: #6495ed; fill-opacity: 0.5; stroke: #6495ed; stroke-opacity: 0.5"/>
     <use xlink:href="#m3eb2701539" x="620.273903" y="430.92" style="fill: #6495ed; fill-opacity: 0.5; stroke: #6495ed; stroke-opacity: 0.5"/>
     <use xlink:href="#m3eb2701539" x="622.636364" y="413.200692" style="fill: #6495ed; fill-opacity: 0.5; stroke: #6495ed; stroke-opacity: 0.5"/>
     <use xlink:href="#m3eb2701539" x="319.847701" y="276.575499" style="fill: #6495ed; fill-opacity: 0.5; stroke: #6495ed; stroke-opacity: 0.5"/>
     <use xlink:href="#m3eb2701539" x="379.171704" y="308.283735" style="fill: #6495ed; fill-opacity: 0.5; stroke: #6495ed; stroke-opacity: 0.5"/>
     <use xlink:href="#m3eb2701539" x="261.836175" y="230.878336" style="fill: #6495ed; fill-opacity: 0.5; stroke: #6495ed; stroke-opacity: 0.5"/>
     <use xlink:href="#m3eb2701539" x="231.517935" y="236.007609" style="fill: #6495ed; fill-opacity: 0.5; stroke: #6495ed; stroke-opacity: 0.5"/>
     <use xlink:href="#m3eb2701539" x="332.709985" y="184.248577" style="fill: #6495ed; fill-opacity: 0.5; stroke: #6495ed; stroke-opacity: 0.5"/>
     <use xlink:href="#m3eb2701539" x="328.378807" y="190.310446" style="fill: #6495ed; fill-opacity: 0.5; stroke: #6495ed; stroke-opacity: 0.5"/>
     <use xlink:href="#m3eb2701539" x="318.403975" y="188.445256" style="fill: #6495ed; fill-opacity: 0.5; stroke: #6495ed; stroke-opacity: 0.5"/>
     <use xlink:href="#m3eb2701539" x="312.891568" y="180.051899" style="fill: #6495ed; fill-opacity: 0.5; stroke: #6495ed; stroke-opacity: 0.5"/>
     <use xlink:href="#m3eb2701539" x="315.12278" y="190.776744" style="fill: #6495ed; fill-opacity: 0.5; stroke: #6495ed; stroke-opacity: 0.5"/>
     <use xlink:href="#m3eb2701539" x="468.420205" y="205.698266" style="fill: #6495ed; fill-opacity: 0.5; stroke: #6495ed; stroke-opacity: 0.5"/>
     <use xlink:href="#m3eb2701539" x="488.107374" y="210.361242" style="fill: #6495ed; fill-opacity: 0.5; stroke: #6495ed; stroke-opacity: 0.5"/>
     <use xlink:href="#m3eb2701539" x="504.644596" y="198.237505" style="fill: #6495ed; fill-opacity: 0.5; stroke: #6495ed; stroke-opacity: 0.5"/>
     <use xlink:href="#m3eb2701539" x="491.519817" y="207.563457" style="fill: #6495ed; fill-opacity: 0.5; stroke: #6495ed; stroke-opacity: 0.5"/>
     <use xlink:href="#m3eb2701539" x="508.319534" y="194.507124" style="fill: #6495ed; fill-opacity: 0.5; stroke: #6495ed; stroke-opacity: 0.5"/>
     <use xlink:href="#m3eb2701539" x="255.930025" y="177.254114" style="fill: #6495ed; fill-opacity: 0.5; stroke: #6495ed; stroke-opacity: 0.5"/>
     <use xlink:href="#m3eb2701539" x="271.811008" y="176.787816" style="fill: #6495ed; fill-opacity: 0.5; stroke: #6495ed; stroke-opacity: 0.5"/>
     <use xlink:href="#m3eb2701539" x="211.043279" y="178.186709" style="fill: #6495ed; fill-opacity: 0.5; stroke: #6495ed; stroke-opacity: 0.5"/>
     <use xlink:href="#m3eb2701539" x="201.330942" y="175.388923" style="fill: #6495ed; fill-opacity: 0.5; stroke: #6495ed; stroke-opacity: 0.5"/>
     <use xlink:href="#m3eb2701539" x="217.868164" y="172.591138" style="fill: #6495ed; fill-opacity: 0.5; stroke: #6495ed; stroke-opacity: 0.5"/>
    </g>
   </g>
   <g id="matplotlib.axis_1">
    <g id="xtick_1">
     <g id="line2d_1">
      <defs>
       <path id="m96e33f5d6e" d="M 0 0 
L 0 3.5 
" style="stroke: #000000; stroke-width: 0.8"/>
      </defs>
      <g>
       <use xlink:href="#m96e33f5d6e" x="115.363636" y="448.56" style="stroke: #000000; stroke-width: 0.8"/>
      </g>
     </g>
     <g id="text_1">
      <!-- 0.285 -->
      <g transform="translate(101.049574 463.158437) scale(0.1 -0.1)">
       <defs>
        <path id="DejaVuSans-30" d="M 2034 4250 
Q 1547 4250 1301 3770 
Q 1056 3291 1056 2328 
Q 1056 1369 1301 889 
Q 1547 409 2034 409 
Q 2525 409 2770 889 
Q 3016 1369 3016 2328 
Q 3016 3291 2770 3770 
Q 2525 4250 2034 4250 
z
M 2034 4750 
Q 2819 4750 3233 4129 
Q 3647 3509 3647 2328 
Q 3647 1150 3233 529 
Q 2819 -91 2034 -91 
Q 1250 -91 836 529 
Q 422 1150 422 2328 
Q 422 3509 836 4129 
Q 1250 4750 2034 4750 
z
" transform="scale(0.015625)"/>
        <path id="DejaVuSans-2e" d="M 684 794 
L 1344 794 
L 1344 0 
L 684 0 
L 684 794 
z
" transform="scale(0.015625)"/>
        <path id="DejaVuSans-32" d="M 1228 531 
L 3431 531 
L 3431 0 
L 469 0 
L 469 531 
Q 828 903 1448 1529 
Q 2069 2156 2228 2338 
Q 2531 2678 2651 2914 
Q 2772 3150 2772 3378 
Q 2772 3750 2511 3984 
Q 2250 4219 1831 4219 
Q 1534 4219 1204 4116 
Q 875 4013 500 3803 
L 500 4441 
Q 881 4594 1212 4672 
Q 1544 4750 1819 4750 
Q 2544 4750 2975 4387 
Q 3406 4025 3406 3419 
Q 3406 3131 3298 2873 
Q 3191 2616 2906 2266 
Q 2828 2175 2409 1742 
Q 1991 1309 1228 531 
z
" transform="scale(0.015625)"/>
        <path id="DejaVuSans-38" d="M 2034 2216 
Q 1584 2216 1326 1975 
Q 1069 1734 1069 1313 
Q 1069 891 1326 650 
Q 1584 409 2034 409 
Q 2484 409 2743 651 
Q 3003 894 3003 1313 
Q 3003 1734 2745 1975 
Q 2488 2216 2034 2216 
z
M 1403 2484 
Q 997 2584 770 2862 
Q 544 3141 544 3541 
Q 544 4100 942 4425 
Q 1341 4750 2034 4750 
Q 2731 4750 3128 4425 
Q 3525 4100 3525 3541 
Q 3525 3141 3298 2862 
Q 3072 2584 2669 2484 
Q 3125 2378 3379 2068 
Q 3634 1759 3634 1313 
Q 3634 634 3220 271 
Q 2806 -91 2034 -91 
Q 1263 -91 848 271 
Q 434 634 434 1313 
Q 434 1759 690 2068 
Q 947 2378 1403 2484 
z
M 1172 3481 
Q 1172 3119 1398 2916 
Q 1625 2713 2034 2713 
Q 2441 2713 2670 2916 
Q 2900 3119 2900 3481 
Q 2900 3844 2670 4047 
Q 2441 4250 2034 4250 
Q 1625 4250 1398 4047 
Q 1172 3844 1172 3481 
z
" transform="scale(0.015625)"/>
        <path id="DejaVuSans-35" d="M 691 4666 
L 3169 4666 
L 3169 4134 
L 1269 4134 
L 1269 2991 
Q 1406 3038 1543 3061 
Q 1681 3084 1819 3084 
Q 2600 3084 3056 2656 
Q 3513 2228 3513 1497 
Q 3513 744 3044 326 
Q 2575 -91 1722 -91 
Q 1428 -91 1123 -41 
Q 819 9 494 109 
L 494 744 
Q 775 591 1075 516 
Q 1375 441 1709 441 
Q 2250 441 2565 725 
Q 2881 1009 2881 1497 
Q 2881 1984 2565 2268 
Q 2250 2553 1709 2553 
Q 1456 2553 1204 2497 
Q 953 2441 691 2322 
L 691 4666 
z
" transform="scale(0.015625)"/>
       </defs>
       <use xlink:href="#DejaVuSans-30"/>
       <use xlink:href="#DejaVuSans-2e" x="63.623047"/>
       <use xlink:href="#DejaVuSans-32" x="95.410156"/>
       <use xlink:href="#DejaVuSans-38" x="159.033203"/>
       <use xlink:href="#DejaVuSans-35" x="222.65625"/>
      </g>
     </g>
    </g>
    <g id="xtick_2">
     <g id="line2d_2">
      <g>
       <use xlink:href="#m96e33f5d6e" x="171.66894" y="448.56" style="stroke: #000000; stroke-width: 0.8"/>
      </g>
     </g>
     <g id="text_2">
      <!-- 0.500 -->
      <g transform="translate(157.354878 463.158437) scale(0.1 -0.1)">
       <use xlink:href="#DejaVuSans-30"/>
       <use xlink:href="#DejaVuSans-2e" x="63.623047"/>
       <use xlink:href="#DejaVuSans-35" x="95.410156"/>
       <use xlink:href="#DejaVuSans-30" x="159.033203"/>
       <use xlink:href="#DejaVuSans-30" x="222.65625"/>
      </g>
     </g>
    </g>
    <g id="xtick_3">
     <g id="line2d_3">
      <g>
       <use xlink:href="#m96e33f5d6e" x="237.292838" y="448.56" style="stroke: #000000; stroke-width: 0.8"/>
      </g>
     </g>
     <g id="text_3">
      <!-- 0.750 -->
      <g transform="translate(222.978775 463.158437) scale(0.1 -0.1)">
       <defs>
        <path id="DejaVuSans-37" d="M 525 4666 
L 3525 4666 
L 3525 4397 
L 1831 0 
L 1172 0 
L 2766 4134 
L 525 4134 
L 525 4666 
z
" transform="scale(0.015625)"/>
       </defs>
       <use xlink:href="#DejaVuSans-30"/>
       <use xlink:href="#DejaVuSans-2e" x="63.623047"/>
       <use xlink:href="#DejaVuSans-37" x="95.410156"/>
       <use xlink:href="#DejaVuSans-35" x="159.033203"/>
       <use xlink:href="#DejaVuSans-30" x="222.65625"/>
      </g>
     </g>
    </g>
    <g id="xtick_4">
     <g id="line2d_4">
      <g>
       <use xlink:href="#m96e33f5d6e" x="302.916735" y="448.56" style="stroke: #000000; stroke-width: 0.8"/>
      </g>
     </g>
     <g id="text_4">
      <!-- 1.000 -->
      <g transform="translate(288.602673 463.158437) scale(0.1 -0.1)">
       <defs>
        <path id="DejaVuSans-31" d="M 794 531 
L 1825 531 
L 1825 4091 
L 703 3866 
L 703 4441 
L 1819 4666 
L 2450 4666 
L 2450 531 
L 3481 531 
L 3481 0 
L 794 0 
L 794 531 
z
" transform="scale(0.015625)"/>
       </defs>
       <use xlink:href="#DejaVuSans-31"/>
       <use xlink:href="#DejaVuSans-2e" x="63.623047"/>
       <use xlink:href="#DejaVuSans-30" x="95.410156"/>
       <use xlink:href="#DejaVuSans-30" x="159.033203"/>
       <use xlink:href="#DejaVuSans-30" x="222.65625"/>
      </g>
     </g>
    </g>
    <g id="xtick_5">
     <g id="line2d_5">
      <g>
       <use xlink:href="#m96e33f5d6e" x="368.540633" y="448.56" style="stroke: #000000; stroke-width: 0.8"/>
      </g>
     </g>
     <g id="text_5">
      <!-- 1.250 -->
      <g transform="translate(354.22657 463.158437) scale(0.1 -0.1)">
       <use xlink:href="#DejaVuSans-31"/>
       <use xlink:href="#DejaVuSans-2e" x="63.623047"/>
       <use xlink:href="#DejaVuSans-32" x="95.410156"/>
       <use xlink:href="#DejaVuSans-35" x="159.033203"/>
       <use xlink:href="#DejaVuSans-30" x="222.65625"/>
      </g>
     </g>
    </g>
    <g id="xtick_6">
     <g id="line2d_6">
      <g>
       <use xlink:href="#m96e33f5d6e" x="434.16453" y="448.56" style="stroke: #000000; stroke-width: 0.8"/>
      </g>
     </g>
     <g id="text_6">
      <!-- 1.500 -->
      <g transform="translate(419.850468 463.158437) scale(0.1 -0.1)">
       <use xlink:href="#DejaVuSans-31"/>
       <use xlink:href="#DejaVuSans-2e" x="63.623047"/>
       <use xlink:href="#DejaVuSans-35" x="95.410156"/>
       <use xlink:href="#DejaVuSans-30" x="159.033203"/>
       <use xlink:href="#DejaVuSans-30" x="222.65625"/>
      </g>
     </g>
    </g>
    <g id="xtick_7">
     <g id="line2d_7">
      <g>
       <use xlink:href="#m96e33f5d6e" x="499.788428" y="448.56" style="stroke: #000000; stroke-width: 0.8"/>
      </g>
     </g>
     <g id="text_7">
      <!-- 1.750 -->
      <g transform="translate(485.474365 463.158437) scale(0.1 -0.1)">
       <use xlink:href="#DejaVuSans-31"/>
       <use xlink:href="#DejaVuSans-2e" x="63.623047"/>
       <use xlink:href="#DejaVuSans-37" x="95.410156"/>
       <use xlink:href="#DejaVuSans-35" x="159.033203"/>
       <use xlink:href="#DejaVuSans-30" x="222.65625"/>
      </g>
     </g>
    </g>
    <g id="xtick_8">
     <g id="line2d_8">
      <g>
       <use xlink:href="#m96e33f5d6e" x="565.412325" y="448.56" style="stroke: #000000; stroke-width: 0.8"/>
      </g>
     </g>
     <g id="text_8">
      <!-- 2.000 -->
      <g transform="translate(551.098263 463.158437) scale(0.1 -0.1)">
       <use xlink:href="#DejaVuSans-32"/>
       <use xlink:href="#DejaVuSans-2e" x="63.623047"/>
       <use xlink:href="#DejaVuSans-30" x="95.410156"/>
       <use xlink:href="#DejaVuSans-30" x="159.033203"/>
       <use xlink:href="#DejaVuSans-30" x="222.65625"/>
      </g>
     </g>
    </g>
    <g id="xtick_9">
     <g id="line2d_9">
      <g>
       <use xlink:href="#m96e33f5d6e" x="622.636364" y="448.56" style="stroke: #000000; stroke-width: 0.8"/>
      </g>
     </g>
     <g id="text_9">
      <!-- 2.218 -->
      <g transform="translate(608.322301 463.158437) scale(0.1 -0.1)">
       <use xlink:href="#DejaVuSans-32"/>
       <use xlink:href="#DejaVuSans-2e" x="63.623047"/>
       <use xlink:href="#DejaVuSans-32" x="95.410156"/>
       <use xlink:href="#DejaVuSans-31" x="159.033203"/>
       <use xlink:href="#DejaVuSans-38" x="222.65625"/>
      </g>
     </g>
    </g>
    <g id="text_10">
     <!-- Mean of methods -->
     <g transform="translate(325.464844 476.836563) scale(0.1 -0.1)">
      <defs>
       <path id="DejaVuSans-4d" d="M 628 4666 
L 1569 4666 
L 2759 1491 
L 3956 4666 
L 4897 4666 
L 4897 0 
L 4281 0 
L 4281 4097 
L 3078 897 
L 2444 897 
L 1241 4097 
L 1241 0 
L 628 0 
L 628 4666 
z
" transform="scale(0.015625)"/>
       <path id="DejaVuSans-65" d="M 3597 1894 
L 3597 1613 
L 953 1613 
Q 991 1019 1311 708 
Q 1631 397 2203 397 
Q 2534 397 2845 478 
Q 3156 559 3463 722 
L 3463 178 
Q 3153 47 2828 -22 
Q 2503 -91 2169 -91 
Q 1331 -91 842 396 
Q 353 884 353 1716 
Q 353 2575 817 3079 
Q 1281 3584 2069 3584 
Q 2775 3584 3186 3129 
Q 3597 2675 3597 1894 
z
M 3022 2063 
Q 3016 2534 2758 2815 
Q 2500 3097 2075 3097 
Q 1594 3097 1305 2825 
Q 1016 2553 972 2059 
L 3022 2063 
z
" transform="scale(0.015625)"/>
       <path id="DejaVuSans-61" d="M 2194 1759 
Q 1497 1759 1228 1600 
Q 959 1441 959 1056 
Q 959 750 1161 570 
Q 1363 391 1709 391 
Q 2188 391 2477 730 
Q 2766 1069 2766 1631 
L 2766 1759 
L 2194 1759 
z
M 3341 1997 
L 3341 0 
L 2766 0 
L 2766 531 
Q 2569 213 2275 61 
Q 1981 -91 1556 -91 
Q 1019 -91 701 211 
Q 384 513 384 1019 
Q 384 1609 779 1909 
Q 1175 2209 1959 2209 
L 2766 2209 
L 2766 2266 
Q 2766 2663 2505 2880 
Q 2244 3097 1772 3097 
Q 1472 3097 1187 3025 
Q 903 2953 641 2809 
L 641 3341 
Q 956 3463 1253 3523 
Q 1550 3584 1831 3584 
Q 2591 3584 2966 3190 
Q 3341 2797 3341 1997 
z
" transform="scale(0.015625)"/>
       <path id="DejaVuSans-6e" d="M 3513 2113 
L 3513 0 
L 2938 0 
L 2938 2094 
Q 2938 2591 2744 2837 
Q 2550 3084 2163 3084 
Q 1697 3084 1428 2787 
Q 1159 2491 1159 1978 
L 1159 0 
L 581 0 
L 581 3500 
L 1159 3500 
L 1159 2956 
Q 1366 3272 1645 3428 
Q 1925 3584 2291 3584 
Q 2894 3584 3203 3211 
Q 3513 2838 3513 2113 
z
" transform="scale(0.015625)"/>
       <path id="DejaVuSans-20" transform="scale(0.015625)"/>
       <path id="DejaVuSans-6f" d="M 1959 3097 
Q 1497 3097 1228 2736 
Q 959 2375 959 1747 
Q 959 1119 1226 758 
Q 1494 397 1959 397 
Q 2419 397 2687 759 
Q 2956 1122 2956 1747 
Q 2956 2369 2687 2733 
Q 2419 3097 1959 3097 
z
M 1959 3584 
Q 2709 3584 3137 3096 
Q 3566 2609 3566 1747 
Q 3566 888 3137 398 
Q 2709 -91 1959 -91 
Q 1206 -91 779 398 
Q 353 888 353 1747 
Q 353 2609 779 3096 
Q 1206 3584 1959 3584 
z
" transform="scale(0.015625)"/>
       <path id="DejaVuSans-66" d="M 2375 4863 
L 2375 4384 
L 1825 4384 
Q 1516 4384 1395 4259 
Q 1275 4134 1275 3809 
L 1275 3500 
L 2222 3500 
L 2222 3053 
L 1275 3053 
L 1275 0 
L 697 0 
L 697 3053 
L 147 3053 
L 147 3500 
L 697 3500 
L 697 3744 
Q 697 4328 969 4595 
Q 1241 4863 1831 4863 
L 2375 4863 
z
" transform="scale(0.015625)"/>
       <path id="DejaVuSans-6d" d="M 3328 2828 
Q 3544 3216 3844 3400 
Q 4144 3584 4550 3584 
Q 5097 3584 5394 3201 
Q 5691 2819 5691 2113 
L 5691 0 
L 5113 0 
L 5113 2094 
Q 5113 2597 4934 2840 
Q 4756 3084 4391 3084 
Q 3944 3084 3684 2787 
Q 3425 2491 3425 1978 
L 3425 0 
L 2847 0 
L 2847 2094 
Q 2847 2600 2669 2842 
Q 2491 3084 2119 3084 
Q 1678 3084 1418 2786 
Q 1159 2488 1159 1978 
L 1159 0 
L 581 0 
L 581 3500 
L 1159 3500 
L 1159 2956 
Q 1356 3278 1631 3431 
Q 1906 3584 2284 3584 
Q 2666 3584 2933 3390 
Q 3200 3197 3328 2828 
z
" transform="scale(0.015625)"/>
       <path id="DejaVuSans-74" d="M 1172 4494 
L 1172 3500 
L 2356 3500 
L 2356 3053 
L 1172 3053 
L 1172 1153 
Q 1172 725 1289 603 
Q 1406 481 1766 481 
L 2356 481 
L 2356 0 
L 1766 0 
Q 1100 0 847 248 
Q 594 497 594 1153 
L 594 3053 
L 172 3053 
L 172 3500 
L 594 3500 
L 594 4494 
L 1172 4494 
z
" transform="scale(0.015625)"/>
       <path id="DejaVuSans-68" d="M 3513 2113 
L 3513 0 
L 2938 0 
L 2938 2094 
Q 2938 2591 2744 2837 
Q 2550 3084 2163 3084 
Q 1697 3084 1428 2787 
Q 1159 2491 1159 1978 
L 1159 0 
L 581 0 
L 581 4863 
L 1159 4863 
L 1159 2956 
Q 1366 3272 1645 3428 
Q 1925 3584 2291 3584 
Q 2894 3584 3203 3211 
Q 3513 2838 3513 2113 
z
" transform="scale(0.015625)"/>
       <path id="DejaVuSans-64" d="M 2906 2969 
L 2906 4863 
L 3481 4863 
L 3481 0 
L 2906 0 
L 2906 525 
Q 2725 213 2448 61 
Q 2172 -91 1784 -91 
Q 1150 -91 751 415 
Q 353 922 353 1747 
Q 353 2572 751 3078 
Q 1150 3584 1784 3584 
Q 2172 3584 2448 3432 
Q 2725 3281 2906 2969 
z
M 947 1747 
Q 947 1113 1208 752 
Q 1469 391 1925 391 
Q 2381 391 2643 752 
Q 2906 1113 2906 1747 
Q 2906 2381 2643 2742 
Q 2381 3103 1925 3103 
Q 1469 3103 1208 2742 
Q 947 2381 947 1747 
z
" transform="scale(0.015625)"/>
       <path id="DejaVuSans-73" d="M 2834 3397 
L 2834 2853 
Q 2591 2978 2328 3040 
Q 2066 3103 1784 3103 
Q 1356 3103 1142 2972 
Q 928 2841 928 2578 
Q 928 2378 1081 2264 
Q 1234 2150 1697 2047 
L 1894 2003 
Q 2506 1872 2764 1633 
Q 3022 1394 3022 966 
Q 3022 478 2636 193 
Q 2250 -91 1575 -91 
Q 1294 -91 989 -36 
Q 684 19 347 128 
L 347 722 
Q 666 556 975 473 
Q 1284 391 1588 391 
Q 1994 391 2212 530 
Q 2431 669 2431 922 
Q 2431 1156 2273 1281 
Q 2116 1406 1581 1522 
L 1381 1569 
Q 847 1681 609 1914 
Q 372 2147 372 2553 
Q 372 3047 722 3315 
Q 1072 3584 1716 3584 
Q 2034 3584 2315 3537 
Q 2597 3491 2834 3397 
z
" transform="scale(0.015625)"/>
      </defs>
      <use xlink:href="#DejaVuSans-4d"/>
      <use xlink:href="#DejaVuSans-65" x="86.279297"/>
      <use xlink:href="#DejaVuSans-61" x="147.802734"/>
      <use xlink:href="#DejaVuSans-6e" x="209.082031"/>
      <use xlink:href="#DejaVuSans-20" x="272.460938"/>
      <use xlink:href="#DejaVuSans-6f" x="304.248047"/>
      <use xlink:href="#DejaVuSans-66" x="365.429688"/>
      <use xlink:href="#DejaVuSans-20" x="400.634766"/>
      <use xlink:href="#DejaVuSans-6d" x="432.421875"/>
      <use xlink:href="#DejaVuSans-65" x="529.833984"/>
      <use xlink:href="#DejaVuSans-74" x="591.357422"/>
      <use xlink:href="#DejaVuSans-68" x="630.566406"/>
      <use xlink:href="#DejaVuSans-6f" x="693.945312"/>
      <use xlink:href="#DejaVuSans-64" x="755.126953"/>
      <use xlink:href="#DejaVuSans-73" x="818.603516"/>
     </g>
    </g>
   </g>
   <g id="matplotlib.axis_2">
    <g id="ytick_1">
     <g id="line2d_10">
      <defs>
       <path id="m890a252639" d="M 0 0 
L -3.5 0 
" style="stroke: #000000; stroke-width: 0.8"/>
      </defs>
      <g>
       <use xlink:href="#m890a252639" x="90" y="430.92" style="stroke: #000000; stroke-width: 0.8"/>
      </g>
     </g>
     <g id="text_11">
      <!-- −0.582 -->
      <g transform="translate(45.992188 434.719219) scale(0.1 -0.1)">
       <defs>
        <path id="DejaVuSans-2212" d="M 678 2272 
L 4684 2272 
L 4684 1741 
L 678 1741 
L 678 2272 
z
" transform="scale(0.015625)"/>
       </defs>
       <use xlink:href="#DejaVuSans-2212"/>
       <use xlink:href="#DejaVuSans-30" x="83.789062"/>
       <use xlink:href="#DejaVuSans-2e" x="147.412109"/>
       <use xlink:href="#DejaVuSans-35" x="179.199219"/>
       <use xlink:href="#DejaVuSans-38" x="242.822266"/>
       <use xlink:href="#DejaVuSans-32" x="306.445312"/>
      </g>
     </g>
    </g>
    <g id="ytick_2">
     <g id="line2d_11">
      <g>
       <use xlink:href="#m890a252639" x="90" y="392.683598" style="stroke: #000000; stroke-width: 0.8"/>
      </g>
     </g>
     <g id="text_12">
      <!-- −0.500 -->
      <g transform="translate(45.992188 396.482817) scale(0.1 -0.1)">
       <use xlink:href="#DejaVuSans-2212"/>
       <use xlink:href="#DejaVuSans-30" x="83.789062"/>
       <use xlink:href="#DejaVuSans-2e" x="147.412109"/>
       <use xlink:href="#DejaVuSans-35" x="179.199219"/>
       <use xlink:href="#DejaVuSans-30" x="242.822266"/>
       <use xlink:href="#DejaVuSans-30" x="306.445312"/>
      </g>
     </g>
    </g>
    <g id="ytick_3">
     <g id="line2d_12">
      <g>
       <use xlink:href="#m890a252639" x="90" y="346.053839" style="stroke: #000000; stroke-width: 0.8"/>
      </g>
     </g>
     <g id="text_13">
      <!-- −0.400 -->
      <g transform="translate(45.992188 349.853058) scale(0.1 -0.1)">
       <defs>
        <path id="DejaVuSans-34" d="M 2419 4116 
L 825 1625 
L 2419 1625 
L 2419 4116 
z
M 2253 4666 
L 3047 4666 
L 3047 1625 
L 3713 1625 
L 3713 1100 
L 3047 1100 
L 3047 0 
L 2419 0 
L 2419 1100 
L 313 1100 
L 313 1709 
L 2253 4666 
z
" transform="scale(0.015625)"/>
       </defs>
       <use xlink:href="#DejaVuSans-2212"/>
       <use xlink:href="#DejaVuSans-30" x="83.789062"/>
       <use xlink:href="#DejaVuSans-2e" x="147.412109"/>
       <use xlink:href="#DejaVuSans-34" x="179.199219"/>
       <use xlink:href="#DejaVuSans-30" x="242.822266"/>
       <use xlink:href="#DejaVuSans-30" x="306.445312"/>
      </g>
     </g>
    </g>
    <g id="ytick_4">
     <g id="line2d_13">
      <g>
       <use xlink:href="#m890a252639" x="90" y="299.424081" style="stroke: #000000; stroke-width: 0.8"/>
      </g>
     </g>
     <g id="text_14">
      <!-- −0.300 -->
      <g transform="translate(45.992188 303.2233) scale(0.1 -0.1)">
       <defs>
        <path id="DejaVuSans-33" d="M 2597 2516 
Q 3050 2419 3304 2112 
Q 3559 1806 3559 1356 
Q 3559 666 3084 287 
Q 2609 -91 1734 -91 
Q 1441 -91 1130 -33 
Q 819 25 488 141 
L 488 750 
Q 750 597 1062 519 
Q 1375 441 1716 441 
Q 2309 441 2620 675 
Q 2931 909 2931 1356 
Q 2931 1769 2642 2001 
Q 2353 2234 1838 2234 
L 1294 2234 
L 1294 2753 
L 1863 2753 
Q 2328 2753 2575 2939 
Q 2822 3125 2822 3475 
Q 2822 3834 2567 4026 
Q 2313 4219 1838 4219 
Q 1578 4219 1281 4162 
Q 984 4106 628 3988 
L 628 4550 
Q 988 4650 1302 4700 
Q 1616 4750 1894 4750 
Q 2613 4750 3031 4423 
Q 3450 4097 3450 3541 
Q 3450 3153 3228 2886 
Q 3006 2619 2597 2516 
z
" transform="scale(0.015625)"/>
       </defs>
       <use xlink:href="#DejaVuSans-2212"/>
       <use xlink:href="#DejaVuSans-30" x="83.789062"/>
       <use xlink:href="#DejaVuSans-2e" x="147.412109"/>
       <use xlink:href="#DejaVuSans-33" x="179.199219"/>
       <use xlink:href="#DejaVuSans-30" x="242.822266"/>
       <use xlink:href="#DejaVuSans-30" x="306.445312"/>
      </g>
     </g>
    </g>
    <g id="ytick_5">
     <g id="line2d_14">
      <g>
       <use xlink:href="#m890a252639" x="90" y="252.794322" style="stroke: #000000; stroke-width: 0.8"/>
      </g>
     </g>
     <g id="text_15">
      <!-- −0.200 -->
      <g transform="translate(45.992188 256.593541) scale(0.1 -0.1)">
       <use xlink:href="#DejaVuSans-2212"/>
       <use xlink:href="#DejaVuSans-30" x="83.789062"/>
       <use xlink:href="#DejaVuSans-2e" x="147.412109"/>
       <use xlink:href="#DejaVuSans-32" x="179.199219"/>
       <use xlink:href="#DejaVuSans-30" x="242.822266"/>
       <use xlink:href="#DejaVuSans-30" x="306.445312"/>
      </g>
     </g>
    </g>
    <g id="ytick_6">
     <g id="line2d_15">
      <g>
       <use xlink:href="#m890a252639" x="90" y="206.164564" style="stroke: #000000; stroke-width: 0.8"/>
      </g>
     </g>
     <g id="text_16">
      <!-- −0.100 -->
      <g transform="translate(45.992188 209.963783) scale(0.1 -0.1)">
       <use xlink:href="#DejaVuSans-2212"/>
       <use xlink:href="#DejaVuSans-30" x="83.789062"/>
       <use xlink:href="#DejaVuSans-2e" x="147.412109"/>
       <use xlink:href="#DejaVuSans-31" x="179.199219"/>
       <use xlink:href="#DejaVuSans-30" x="242.822266"/>
       <use xlink:href="#DejaVuSans-30" x="306.445312"/>
      </g>
     </g>
    </g>
    <g id="ytick_7">
     <g id="line2d_16">
      <g>
       <use xlink:href="#m890a252639" x="90" y="159.534805" style="stroke: #000000; stroke-width: 0.8"/>
      </g>
     </g>
    </g>
    <g id="ytick_8">
     <g id="line2d_17">
      <g>
       <use xlink:href="#m890a252639" x="90" y="155.338127" style="stroke: #000000; stroke-width: 0.8"/>
      </g>
     </g>
     <g id="text_17">
      <!-- 0.009 -->
      <g transform="translate(54.371875 159.137346) scale(0.1 -0.1)">
       <defs>
        <path id="DejaVuSans-39" d="M 703 97 
L 703 672 
Q 941 559 1184 500 
Q 1428 441 1663 441 
Q 2288 441 2617 861 
Q 2947 1281 2994 2138 
Q 2813 1869 2534 1725 
Q 2256 1581 1919 1581 
Q 1219 1581 811 2004 
Q 403 2428 403 3163 
Q 403 3881 828 4315 
Q 1253 4750 1959 4750 
Q 2769 4750 3195 4129 
Q 3622 3509 3622 2328 
Q 3622 1225 3098 567 
Q 2575 -91 1691 -91 
Q 1453 -91 1209 -44 
Q 966 3 703 97 
z
M 1959 2075 
Q 2384 2075 2632 2365 
Q 2881 2656 2881 3163 
Q 2881 3666 2632 3958 
Q 2384 4250 1959 4250 
Q 1534 4250 1286 3958 
Q 1038 3666 1038 3163 
Q 1038 2656 1286 2365 
Q 1534 2075 1959 2075 
z
" transform="scale(0.015625)"/>
       </defs>
       <use xlink:href="#DejaVuSans-30"/>
       <use xlink:href="#DejaVuSans-2e" x="63.623047"/>
       <use xlink:href="#DejaVuSans-30" x="95.410156"/>
       <use xlink:href="#DejaVuSans-30" x="159.033203"/>
       <use xlink:href="#DejaVuSans-39" x="222.65625"/>
      </g>
     </g>
    </g>
    <g id="text_18">
     <!-- Difference between methods -->
     <g transform="translate(39.9125 327.084063) rotate(-90) scale(0.1 -0.1)">
      <defs>
       <path id="DejaVuSans-44" d="M 1259 4147 
L 1259 519 
L 2022 519 
Q 2988 519 3436 956 
Q 3884 1394 3884 2338 
Q 3884 3275 3436 3711 
Q 2988 4147 2022 4147 
L 1259 4147 
z
M 628 4666 
L 1925 4666 
Q 3281 4666 3915 4102 
Q 4550 3538 4550 2338 
Q 4550 1131 3912 565 
Q 3275 0 1925 0 
L 628 0 
L 628 4666 
z
" transform="scale(0.015625)"/>
       <path id="DejaVuSans-69" d="M 603 3500 
L 1178 3500 
L 1178 0 
L 603 0 
L 603 3500 
z
M 603 4863 
L 1178 4863 
L 1178 4134 
L 603 4134 
L 603 4863 
z
" transform="scale(0.015625)"/>
       <path id="DejaVuSans-72" d="M 2631 2963 
Q 2534 3019 2420 3045 
Q 2306 3072 2169 3072 
Q 1681 3072 1420 2755 
Q 1159 2438 1159 1844 
L 1159 0 
L 581 0 
L 581 3500 
L 1159 3500 
L 1159 2956 
Q 1341 3275 1631 3429 
Q 1922 3584 2338 3584 
Q 2397 3584 2469 3576 
Q 2541 3569 2628 3553 
L 2631 2963 
z
" transform="scale(0.015625)"/>
       <path id="DejaVuSans-63" d="M 3122 3366 
L 3122 2828 
Q 2878 2963 2633 3030 
Q 2388 3097 2138 3097 
Q 1578 3097 1268 2742 
Q 959 2388 959 1747 
Q 959 1106 1268 751 
Q 1578 397 2138 397 
Q 2388 397 2633 464 
Q 2878 531 3122 666 
L 3122 134 
Q 2881 22 2623 -34 
Q 2366 -91 2075 -91 
Q 1284 -91 818 406 
Q 353 903 353 1747 
Q 353 2603 823 3093 
Q 1294 3584 2113 3584 
Q 2378 3584 2631 3529 
Q 2884 3475 3122 3366 
z
" transform="scale(0.015625)"/>
       <path id="DejaVuSans-62" d="M 3116 1747 
Q 3116 2381 2855 2742 
Q 2594 3103 2138 3103 
Q 1681 3103 1420 2742 
Q 1159 2381 1159 1747 
Q 1159 1113 1420 752 
Q 1681 391 2138 391 
Q 2594 391 2855 752 
Q 3116 1113 3116 1747 
z
M 1159 2969 
Q 1341 3281 1617 3432 
Q 1894 3584 2278 3584 
Q 2916 3584 3314 3078 
Q 3713 2572 3713 1747 
Q 3713 922 3314 415 
Q 2916 -91 2278 -91 
Q 1894 -91 1617 61 
Q 1341 213 1159 525 
L 1159 0 
L 581 0 
L 581 4863 
L 1159 4863 
L 1159 2969 
z
" transform="scale(0.015625)"/>
       <path id="DejaVuSans-77" d="M 269 3500 
L 844 3500 
L 1563 769 
L 2278 3500 
L 2956 3500 
L 3675 769 
L 4391 3500 
L 4966 3500 
L 4050 0 
L 3372 0 
L 2619 2869 
L 1863 0 
L 1184 0 
L 269 3500 
z
" transform="scale(0.015625)"/>
      </defs>
      <use xlink:href="#DejaVuSans-44"/>
      <use xlink:href="#DejaVuSans-69" x="77.001953"/>
      <use xlink:href="#DejaVuSans-66" x="104.785156"/>
      <use xlink:href="#DejaVuSans-66" x="139.990234"/>
      <use xlink:href="#DejaVuSans-65" x="175.195312"/>
      <use xlink:href="#DejaVuSans-72" x="236.71875"/>
      <use xlink:href="#DejaVuSans-65" x="275.582031"/>
      <use xlink:href="#DejaVuSans-6e" x="337.105469"/>
      <use xlink:href="#DejaVuSans-63" x="400.484375"/>
      <use xlink:href="#DejaVuSans-65" x="455.464844"/>
      <use xlink:href="#DejaVuSans-20" x="516.988281"/>
      <use xlink:href="#DejaVuSans-62" x="548.775391"/>
      <use xlink:href="#DejaVuSans-65" x="612.251953"/>
      <use xlink:href="#DejaVuSans-74" x="673.775391"/>
      <use xlink:href="#DejaVuSans-77" x="712.984375"/>
      <use xlink:href="#DejaVuSans-65" x="794.771484"/>
      <use xlink:href="#DejaVuSans-65" x="856.294922"/>
      <use xlink:href="#DejaVuSans-6e" x="917.818359"/>
      <use xlink:href="#DejaVuSans-20" x="981.197266"/>
      <use xlink:href="#DejaVuSans-6d" x="1012.984375"/>
      <use xlink:href="#DejaVuSans-65" x="1110.396484"/>
      <use xlink:href="#DejaVuSans-74" x="1171.919922"/>
      <use xlink:href="#DejaVuSans-68" x="1211.128906"/>
      <use xlink:href="#DejaVuSans-6f" x="1274.507812"/>
      <use xlink:href="#DejaVuSans-64" x="1335.689453"/>
      <use xlink:href="#DejaVuSans-73" x="1399.166016"/>
     </g>
    </g>
   </g>
   <g id="line2d_18">
    <path d="M 90 234.224336 
L 648 234.224336 
" clip-path="url(#pa12a85af6f)" style="fill: none; stroke-dasharray: 5.55,2.4; stroke-dashoffset: 0; stroke: #6495ed; stroke-width: 1.5"/>
   </g>
   <g id="line2d_19">
    <path d="M 90 104.453581 
L 648 104.453581 
" clip-path="url(#pa12a85af6f)" style="fill: none; stroke-dasharray: 5.55,2.4; stroke-dashoffset: 0; stroke: #ff7f50; stroke-width: 1.5"/>
   </g>
   <g id="line2d_20">
    <path d="M 90 363.995091 
L 648 363.995091 
" clip-path="url(#pa12a85af6f)" style="fill: none; stroke-dasharray: 5.55,2.4; stroke-dashoffset: 0; stroke: #ff7f50; stroke-width: 1.5"/>
   </g>
   <g id="patch_6">
    <path d="M 90 430.92 
L 90 155.338127 
" style="fill: none; stroke: #000000; stroke-width: 0.8; stroke-linejoin: miter; stroke-linecap: square"/>
   </g>
   <g id="patch_7">
    <path d="M 115.363636 448.56 
L 622.636364 448.56 
" style="fill: none; stroke: #000000; stroke-width: 0.8; stroke-linejoin: miter; stroke-linecap: square"/>
   </g>
   <g id="text_19">
    <!-- Mean -->
    <g transform="translate(609.593125 228.251526) scale(0.1 -0.1)">
     <use xlink:href="#DejaVuSans-4d"/>
     <use xlink:href="#DejaVuSans-65" x="86.279297"/>
     <use xlink:href="#DejaVuSans-61" x="147.802734"/>
     <use xlink:href="#DejaVuSans-6e" x="209.082031"/>
    </g>
   </g>
   <g id="text_20">
    <!-- -0.16 -->
    <g transform="translate(610.966563 245.715896) scale(0.1 -0.1)">
     <defs>
      <path id="DejaVuSans-2d" d="M 313 2009 
L 1997 2009 
L 1997 1497 
L 313 1497 
L 313 2009 
z
" transform="scale(0.015625)"/>
      <path id="DejaVuSans-36" d="M 2113 2584 
Q 1688 2584 1439 2293 
Q 1191 2003 1191 1497 
Q 1191 994 1439 701 
Q 1688 409 2113 409 
Q 2538 409 2786 701 
Q 3034 994 3034 1497 
Q 3034 2003 2786 2293 
Q 2538 2584 2113 2584 
z
M 3366 4563 
L 3366 3988 
Q 3128 4100 2886 4159 
Q 2644 4219 2406 4219 
Q 1781 4219 1451 3797 
Q 1122 3375 1075 2522 
Q 1259 2794 1537 2939 
Q 1816 3084 2150 3084 
Q 2853 3084 3261 2657 
Q 3669 2231 3669 1497 
Q 3669 778 3244 343 
Q 2819 -91 2113 -91 
Q 1303 -91 875 529 
Q 447 1150 447 2328 
Q 447 3434 972 4092 
Q 1497 4750 2381 4750 
Q 2619 4750 2861 4703 
Q 3103 4656 3366 4563 
z
" transform="scale(0.015625)"/>
     </defs>
     <use xlink:href="#DejaVuSans-2d"/>
     <use xlink:href="#DejaVuSans-30" x="36.083984"/>
     <use xlink:href="#DejaVuSans-2e" x="99.707031"/>
     <use xlink:href="#DejaVuSans-31" x="131.494141"/>
     <use xlink:href="#DejaVuSans-36" x="195.117188"/>
    </g>
   </g>
   <g id="text_21">
    <!-- +1.96 SD -->
    <g transform="translate(588.968125 98.480771) scale(0.1 -0.1)">
     <defs>
      <path id="DejaVuSans-2b" d="M 2944 4013 
L 2944 2272 
L 4684 2272 
L 4684 1741 
L 2944 1741 
L 2944 0 
L 2419 0 
L 2419 1741 
L 678 1741 
L 678 2272 
L 2419 2272 
L 2419 4013 
L 2944 4013 
z
" transform="scale(0.015625)"/>
      <path id="DejaVuSans-53" d="M 3425 4513 
L 3425 3897 
Q 3066 4069 2747 4153 
Q 2428 4238 2131 4238 
Q 1616 4238 1336 4038 
Q 1056 3838 1056 3469 
Q 1056 3159 1242 3001 
Q 1428 2844 1947 2747 
L 2328 2669 
Q 3034 2534 3370 2195 
Q 3706 1856 3706 1288 
Q 3706 609 3251 259 
Q 2797 -91 1919 -91 
Q 1588 -91 1214 -16 
Q 841 59 441 206 
L 441 856 
Q 825 641 1194 531 
Q 1563 422 1919 422 
Q 2459 422 2753 634 
Q 3047 847 3047 1241 
Q 3047 1584 2836 1778 
Q 2625 1972 2144 2069 
L 1759 2144 
Q 1053 2284 737 2584 
Q 422 2884 422 3419 
Q 422 4038 858 4394 
Q 1294 4750 2059 4750 
Q 2388 4750 2728 4690 
Q 3069 4631 3425 4513 
z
" transform="scale(0.015625)"/>
     </defs>
     <use xlink:href="#DejaVuSans-2b"/>
     <use xlink:href="#DejaVuSans-31" x="83.789062"/>
     <use xlink:href="#DejaVuSans-2e" x="147.412109"/>
     <use xlink:href="#DejaVuSans-39" x="179.199219"/>
     <use xlink:href="#DejaVuSans-36" x="242.822266"/>
     <use xlink:href="#DejaVuSans-20" x="306.445312"/>
     <use xlink:href="#DejaVuSans-53" x="338.232422"/>
     <use xlink:href="#DejaVuSans-44" x="401.708984"/>
    </g>
   </g>
   <g id="text_22">
    <!-- 0.12 -->
    <g transform="translate(614.574375 115.945141) scale(0.1 -0.1)">
     <use xlink:href="#DejaVuSans-30"/>
     <use xlink:href="#DejaVuSans-2e" x="63.623047"/>
     <use xlink:href="#DejaVuSans-31" x="95.410156"/>
     <use xlink:href="#DejaVuSans-32" x="159.033203"/>
    </g>
   </g>
   <g id="text_23">
    <!-- -1.96 SD -->
    <g transform="translate(593.74 375.486652) scale(0.1 -0.1)">
     <use xlink:href="#DejaVuSans-2d"/>
     <use xlink:href="#DejaVuSans-31" x="36.083984"/>
     <use xlink:href="#DejaVuSans-2e" x="99.707031"/>
     <use xlink:href="#DejaVuSans-39" x="131.494141"/>
     <use xlink:href="#DejaVuSans-36" x="195.117188"/>
     <use xlink:href="#DejaVuSans-20" x="258.740234"/>
     <use xlink:href="#DejaVuSans-53" x="290.527344"/>
     <use xlink:href="#DejaVuSans-44" x="354.003906"/>
    </g>
   </g>
   <g id="text_24">
    <!-- -0.44 -->
    <g transform="translate(610.966563 358.022281) scale(0.1 -0.1)">
     <use xlink:href="#DejaVuSans-2d"/>
     <use xlink:href="#DejaVuSans-30" x="36.083984"/>
     <use xlink:href="#DejaVuSans-2e" x="99.707031"/>
     <use xlink:href="#DejaVuSans-34" x="131.494141"/>
     <use xlink:href="#DejaVuSans-34" x="195.117188"/>
    </g>
   </g>
  </g>
 </g>
 <defs>
  <clipPath id="pa12a85af6f">
   <rect x="90" y="60.48" width="558" height="388.08"/>
  </clipPath>
 </defs>
</svg>
