<?xml version="1.0" encoding="utf-8" standalone="no"?>
<!DOCTYPE svg PUBLIC "-//W3C//DTD SVG 1.1//EN"
  "http://www.w3.org/Graphics/SVG/1.1/DTD/svg11.dtd">
<svg xmlns:xlink="http://www.w3.org/1999/xlink" width="720pt" height="504pt" viewBox="0 0 720 504" xmlns="http://www.w3.org/2000/svg" version="1.1">
 <metadata>
  <rdf:RDF xmlns:dc="http://purl.org/dc/elements/1.1/" xmlns:cc="http://creativecommons.org/ns#" xmlns:rdf="http://www.w3.org/1999/02/22-rdf-syntax-ns#">
   <cc:Work>
    <dc:type rdf:resource="http://purl.org/dc/dcmitype/StillImage"/>
    <dc:date>2025-05-18T19:23:08.022057</dc:date>
    <dc:format>image/svg+xml</dc:format>
    <dc:creator>
     <cc:Agent>
      <dc:title>Matplotlib v3.9.2, https://matplotlib.org/</dc:title>
     </cc:Agent>
    </dc:creator>
   </cc:Work>
  </rdf:RDF>
 </metadata>
 <defs>
  <style type="text/css">*{stroke-linejoin: round; stroke-linecap: butt}</style>
 </defs>
 <g id="figure_1">
  <g id="patch_1">
   <path d="M 0 504 
L 720 504 
L 720 0 
L 0 0 
z
" style="fill: #ffffff"/>
  </g>
  <g id="axes_1">
   <g id="patch_2">
    <path d="M 90 448.56 
L 648 448.56 
L 648 60.48 
L 90 60.48 
L 90 448.56 
z
" style="fill: none; opacity: 0"/>
   </g>
   <g id="patch_3">
    <path d="M 90 247.687683 
L 648 247.687683 
L 648 219.75529 
L 90 219.75529 
z
" clip-path="url(#pd71f1e6bc9)" style="fill: #6495ed; opacity: 0.2"/>
   </g>
   <g id="patch_4">
    <path d="M 90 139.544837 
L 648 139.544837 
L 648 91.592862 
L 90 91.592862 
z
" clip-path="url(#pd71f1e6bc9)" style="fill: #ff7f50; opacity: 0.2"/>
   </g>
   <g id="patch_5">
    <path d="M 90 375.850111 
L 648 375.850111 
L 648 327.898136 
L 90 327.898136 
z
" clip-path="url(#pd71f1e6bc9)" style="fill: #ff7f50; opacity: 0.2"/>
   </g>
   <g id="PathCollection_1">
    <defs>
     <path id="m7a5804ba38" d="M 0 3 
C 0.795609 3 1.55874 2.683901 2.12132 2.12132 
C 2.683901 1.55874 3 0.795609 3 0 
C 3 -0.795609 2.683901 -1.55874 2.12132 -2.12132 
C 1.55874 -2.683901 0.795609 -3 0 -3 
C -0.795609 -3 -1.55874 -2.683901 -2.12132 -2.12132 
C -2.683901 -1.55874 -3 -0.795609 -3 0 
C -3 0.795609 -2.683901 1.55874 -2.12132 2.12132 
C -1.55874 2.683901 -0.795609 3 0 3 
z
" style="stroke: #6495ed; stroke-opacity: 0.5"/>
    </defs>
    <g clip-path="url(#pd71f1e6bc9)">
     <use xlink:href="#m7a5804ba38" x="315.168138" y="153.09" style="fill: #6495ed; fill-opacity: 0.5; stroke: #6495ed; stroke-opacity: 0.5"/>
     <use xlink:href="#m7a5804ba38" x="388.368077" y="170.73" style="fill: #6495ed; fill-opacity: 0.5; stroke: #6495ed; stroke-opacity: 0.5"/>
     <use xlink:href="#m7a5804ba38" x="376.547854" y="201.6" style="fill: #6495ed; fill-opacity: 0.5; stroke: #6495ed; stroke-opacity: 0.5"/>
     <use xlink:href="#m7a5804ba38" x="378.399214" y="179.55" style="fill: #6495ed; fill-opacity: 0.5; stroke: #6495ed; stroke-opacity: 0.5"/>
     <use xlink:href="#m7a5804ba38" x="374.981318" y="258.93" style="fill: #6495ed; fill-opacity: 0.5; stroke: #6495ed; stroke-opacity: 0.5"/>
     <use xlink:href="#m7a5804ba38" x="535.195192" y="228.06" style="fill: #6495ed; fill-opacity: 0.5; stroke: #6495ed; stroke-opacity: 0.5"/>
     <use xlink:href="#m7a5804ba38" x="545.306467" y="285.39" style="fill: #6495ed; fill-opacity: 0.5; stroke: #6495ed; stroke-opacity: 0.5"/>
     <use xlink:href="#m7a5804ba38" x="535.195192" y="201.6" style="fill: #6495ed; fill-opacity: 0.5; stroke: #6495ed; stroke-opacity: 0.5"/>
     <use xlink:href="#m7a5804ba38" x="562.111122" y="188.37" style="fill: #6495ed; fill-opacity: 0.5; stroke: #6495ed; stroke-opacity: 0.5"/>
     <use xlink:href="#m7a5804ba38" x="568.234853" y="272.16" style="fill: #6495ed; fill-opacity: 0.5; stroke: #6495ed; stroke-opacity: 0.5"/>
     <use xlink:href="#m7a5804ba38" x="140.855444" y="161.91" style="fill: #6495ed; fill-opacity: 0.5; stroke: #6495ed; stroke-opacity: 0.5"/>
     <use xlink:href="#m7a5804ba38" x="177.597826" y="223.65" style="fill: #6495ed; fill-opacity: 0.5; stroke: #6495ed; stroke-opacity: 0.5"/>
     <use xlink:href="#m7a5804ba38" x="184.57603" y="201.6" style="fill: #6495ed; fill-opacity: 0.5; stroke: #6495ed; stroke-opacity: 0.5"/>
     <use xlink:href="#m7a5804ba38" x="167.059313" y="214.83" style="fill: #6495ed; fill-opacity: 0.5; stroke: #6495ed; stroke-opacity: 0.5"/>
     <use xlink:href="#m7a5804ba38" x="188.705987" y="206.01" style="fill: #6495ed; fill-opacity: 0.5; stroke: #6495ed; stroke-opacity: 0.5"/>
     <use xlink:href="#m7a5804ba38" x="279.422643" y="228.06" style="fill: #6495ed; fill-opacity: 0.5; stroke: #6495ed; stroke-opacity: 0.5"/>
     <use xlink:href="#m7a5804ba38" x="297.224185" y="206.01" style="fill: #6495ed; fill-opacity: 0.5; stroke: #6495ed; stroke-opacity: 0.5"/>
     <use xlink:href="#m7a5804ba38" x="311.750242" y="153.09" style="fill: #6495ed; fill-opacity: 0.5; stroke: #6495ed; stroke-opacity: 0.5"/>
     <use xlink:href="#m7a5804ba38" x="325.564239" y="183.96" style="fill: #6495ed; fill-opacity: 0.5; stroke: #6495ed; stroke-opacity: 0.5"/>
     <use xlink:href="#m7a5804ba38" x="316.592262" y="241.29" style="fill: #6495ed; fill-opacity: 0.5; stroke: #6495ed; stroke-opacity: 0.5"/>
     <use xlink:href="#m7a5804ba38" x="458.434945" y="223.65" style="fill: #6495ed; fill-opacity: 0.5; stroke: #6495ed; stroke-opacity: 0.5"/>
     <use xlink:href="#m7a5804ba38" x="468.54622" y="245.7" style="fill: #6495ed; fill-opacity: 0.5; stroke: #6495ed; stroke-opacity: 0.5"/>
     <use xlink:href="#m7a5804ba38" x="468.688633" y="223.65" style="fill: #6495ed; fill-opacity: 0.5; stroke: #6495ed; stroke-opacity: 0.5"/>
     <use xlink:href="#m7a5804ba38" x="462.42249" y="223.65" style="fill: #6495ed; fill-opacity: 0.5; stroke: #6495ed; stroke-opacity: 0.5"/>
     <use xlink:href="#m7a5804ba38" x="456.583584" y="219.24" style="fill: #6495ed; fill-opacity: 0.5; stroke: #6495ed; stroke-opacity: 0.5"/>
     <use xlink:href="#m7a5804ba38" x="259.05768" y="144.27" style="fill: #6495ed; fill-opacity: 0.5; stroke: #6495ed; stroke-opacity: 0.5"/>
     <use xlink:href="#m7a5804ba38" x="257.491144" y="166.32" style="fill: #6495ed; fill-opacity: 0.5; stroke: #6495ed; stroke-opacity: 0.5"/>
     <use xlink:href="#m7a5804ba38" x="247.664693" y="179.55" style="fill: #6495ed; fill-opacity: 0.5; stroke: #6495ed; stroke-opacity: 0.5"/>
     <use xlink:href="#m7a5804ba38" x="270.308254" y="175.14" style="fill: #6495ed; fill-opacity: 0.5; stroke: #6495ed; stroke-opacity: 0.5"/>
     <use xlink:href="#m7a5804ba38" x="272.017202" y="280.98" style="fill: #6495ed; fill-opacity: 0.5; stroke: #6495ed; stroke-opacity: 0.5"/>
     <use xlink:href="#m7a5804ba38" x="381.81711" y="223.65" style="fill: #6495ed; fill-opacity: 0.5; stroke: #6495ed; stroke-opacity: 0.5"/>
     <use xlink:href="#m7a5804ba38" x="372.133071" y="206.01" style="fill: #6495ed; fill-opacity: 0.5; stroke: #6495ed; stroke-opacity: 0.5"/>
     <use xlink:href="#m7a5804ba38" x="410.584401" y="250.11" style="fill: #6495ed; fill-opacity: 0.5; stroke: #6495ed; stroke-opacity: 0.5"/>
     <use xlink:href="#m7a5804ba38" x="414.002297" y="267.75" style="fill: #6495ed; fill-opacity: 0.5; stroke: #6495ed; stroke-opacity: 0.5"/>
     <use xlink:href="#m7a5804ba38" x="433.512786" y="228.06" style="fill: #6495ed; fill-opacity: 0.5; stroke: #6495ed; stroke-opacity: 0.5"/>
     <use xlink:href="#m7a5804ba38" x="537.758614" y="325.08" style="fill: #6495ed; fill-opacity: 0.5; stroke: #6495ed; stroke-opacity: 0.5"/>
     <use xlink:href="#m7a5804ba38" x="576.209943" y="280.98" style="fill: #6495ed; fill-opacity: 0.5; stroke: #6495ed; stroke-opacity: 0.5"/>
     <use xlink:href="#m7a5804ba38" x="588.030167" y="144.27" style="fill: #6495ed; fill-opacity: 0.5; stroke: #6495ed; stroke-opacity: 0.5"/>
     <use xlink:href="#m7a5804ba38" x="573.076872" y="272.16" style="fill: #6495ed; fill-opacity: 0.5; stroke: #6495ed; stroke-opacity: 0.5"/>
     <use xlink:href="#m7a5804ba38" x="622.636364" y="280.98" style="fill: #6495ed; fill-opacity: 0.5; stroke: #6495ed; stroke-opacity: 0.5"/>
     <use xlink:href="#m7a5804ba38" x="129.320045" y="78.12" style="fill: #6495ed; fill-opacity: 0.5; stroke: #6495ed; stroke-opacity: 0.5"/>
     <use xlink:href="#m7a5804ba38" x="115.363636" y="157.5" style="fill: #6495ed; fill-opacity: 0.5; stroke: #6495ed; stroke-opacity: 0.5"/>
     <use xlink:href="#m7a5804ba38" x="118.781532" y="192.78" style="fill: #6495ed; fill-opacity: 0.5; stroke: #6495ed; stroke-opacity: 0.5"/>
     <use xlink:href="#m7a5804ba38" x="148.688122" y="148.68" style="fill: #6495ed; fill-opacity: 0.5; stroke: #6495ed; stroke-opacity: 0.5"/>
     <use xlink:href="#m7a5804ba38" x="176.173702" y="197.19" style="fill: #6495ed; fill-opacity: 0.5; stroke: #6495ed; stroke-opacity: 0.5"/>
     <use xlink:href="#m7a5804ba38" x="412.720586" y="254.52" style="fill: #6495ed; fill-opacity: 0.5; stroke: #6495ed; stroke-opacity: 0.5"/>
     <use xlink:href="#m7a5804ba38" x="430.949365" y="263.34" style="fill: #6495ed; fill-opacity: 0.5; stroke: #6495ed; stroke-opacity: 0.5"/>
     <use xlink:href="#m7a5804ba38" x="443.766474" y="228.06" style="fill: #6495ed; fill-opacity: 0.5; stroke: #6495ed; stroke-opacity: 0.5"/>
     <use xlink:href="#m7a5804ba38" x="440.918228" y="245.7" style="fill: #6495ed; fill-opacity: 0.5; stroke: #6495ed; stroke-opacity: 0.5"/>
     <use xlink:href="#m7a5804ba38" x="442.342351" y="254.52" style="fill: #6495ed; fill-opacity: 0.5; stroke: #6495ed; stroke-opacity: 0.5"/>
     <use xlink:href="#m7a5804ba38" x="554.136032" y="250.11" style="fill: #6495ed; fill-opacity: 0.5; stroke: #6495ed; stroke-opacity: 0.5"/>
     <use xlink:href="#m7a5804ba38" x="550.860548" y="219.24" style="fill: #6495ed; fill-opacity: 0.5; stroke: #6495ed; stroke-opacity: 0.5"/>
     <use xlink:href="#m7a5804ba38" x="587.745342" y="294.21" style="fill: #6495ed; fill-opacity: 0.5; stroke: #6495ed; stroke-opacity: 0.5"/>
     <use xlink:href="#m7a5804ba38" x="586.036394" y="294.21" style="fill: #6495ed; fill-opacity: 0.5; stroke: #6495ed; stroke-opacity: 0.5"/>
     <use xlink:href="#m7a5804ba38" x="590.166352" y="175.14" style="fill: #6495ed; fill-opacity: 0.5; stroke: #6495ed; stroke-opacity: 0.5"/>
     <use xlink:href="#m7a5804ba38" x="305.626512" y="245.7" style="fill: #6495ed; fill-opacity: 0.5; stroke: #6495ed; stroke-opacity: 0.5"/>
     <use xlink:href="#m7a5804ba38" x="359.315961" y="214.83" style="fill: #6495ed; fill-opacity: 0.5; stroke: #6495ed; stroke-opacity: 0.5"/>
     <use xlink:href="#m7a5804ba38" x="254.642897" y="183.96" style="fill: #6495ed; fill-opacity: 0.5; stroke: #6495ed; stroke-opacity: 0.5"/>
     <use xlink:href="#m7a5804ba38" x="221.888061" y="236.88" style="fill: #6495ed; fill-opacity: 0.5; stroke: #6495ed; stroke-opacity: 0.5"/>
     <use xlink:href="#m7a5804ba38" x="348.919861" y="280.98" style="fill: #6495ed; fill-opacity: 0.5; stroke: #6495ed; stroke-opacity: 0.5"/>
     <use xlink:href="#m7a5804ba38" x="342.368894" y="280.98" style="fill: #6495ed; fill-opacity: 0.5; stroke: #6495ed; stroke-opacity: 0.5"/>
     <use xlink:href="#m7a5804ba38" x="332.684855" y="298.62" style="fill: #6495ed; fill-opacity: 0.5; stroke: #6495ed; stroke-opacity: 0.5"/>
     <use xlink:href="#m7a5804ba38" x="327.273187" y="236.88" style="fill: #6495ed; fill-opacity: 0.5; stroke: #6495ed; stroke-opacity: 0.5"/>
     <use xlink:href="#m7a5804ba38" x="328.554898" y="303.03" style="fill: #6495ed; fill-opacity: 0.5; stroke: #6495ed; stroke-opacity: 0.5"/>
     <use xlink:href="#m7a5804ba38" x="494.465265" y="430.92" style="fill: #6495ed; fill-opacity: 0.5; stroke: #6495ed; stroke-opacity: 0.5"/>
     <use xlink:href="#m7a5804ba38" x="514.260579" y="426.51" style="fill: #6495ed; fill-opacity: 0.5; stroke: #6495ed; stroke-opacity: 0.5"/>
     <use xlink:href="#m7a5804ba38" x="533.343831" y="347.13" style="fill: #6495ed; fill-opacity: 0.5; stroke: #6495ed; stroke-opacity: 0.5"/>
     <use xlink:href="#m7a5804ba38" x="517.108825" y="373.59" style="fill: #6495ed; fill-opacity: 0.5; stroke: #6495ed; stroke-opacity: 0.5"/>
     <use xlink:href="#m7a5804ba38" x="536.192078" y="276.57" style="fill: #6495ed; fill-opacity: 0.5; stroke: #6495ed; stroke-opacity: 0.5"/>
     <use xlink:href="#m7a5804ba38" x="265.608647" y="214.83" style="fill: #6495ed; fill-opacity: 0.5; stroke: #6495ed; stroke-opacity: 0.5"/>
     <use xlink:href="#m7a5804ba38" x="284.691899" y="267.75" style="fill: #6495ed; fill-opacity: 0.5; stroke: #6495ed; stroke-opacity: 0.5"/>
     <use xlink:href="#m7a5804ba38" x="217.758103" y="250.11" style="fill: #6495ed; fill-opacity: 0.5; stroke: #6495ed; stroke-opacity: 0.5"/>
     <use xlink:href="#m7a5804ba38" x="207.931652" y="245.7" style="fill: #6495ed; fill-opacity: 0.5; stroke: #6495ed; stroke-opacity: 0.5"/>
     <use xlink:href="#m7a5804ba38" x="225.448369" y="206.01" style="fill: #6495ed; fill-opacity: 0.5; stroke: #6495ed; stroke-opacity: 0.5"/>
    </g>
   </g>
   <g id="matplotlib.axis_1">
    <g id="xtick_1">
     <g id="line2d_1">
      <defs>
       <path id="m387d91d80b" d="M 0 0 
L 0 3.5 
" style="stroke: #000000; stroke-width: 0.8"/>
      </defs>
      <g>
       <use xlink:href="#m387d91d80b" x="115.363636" y="448.56" style="stroke: #000000; stroke-width: 0.8"/>
      </g>
     </g>
     <g id="text_1">
      <!-- 0.281 -->
      <g transform="translate(101.049574 463.158437) scale(0.1 -0.1)">
       <defs>
        <path id="DejaVuSans-30" d="M 2034 4250 
Q 1547 4250 1301 3770 
Q 1056 3291 1056 2328 
Q 1056 1369 1301 889 
Q 1547 409 2034 409 
Q 2525 409 2770 889 
Q 3016 1369 3016 2328 
Q 3016 3291 2770 3770 
Q 2525 4250 2034 4250 
z
M 2034 4750 
Q 2819 4750 3233 4129 
Q 3647 3509 3647 2328 
Q 3647 1150 3233 529 
Q 2819 -91 2034 -91 
Q 1250 -91 836 529 
Q 422 1150 422 2328 
Q 422 3509 836 4129 
Q 1250 4750 2034 4750 
z
" transform="scale(0.015625)"/>
        <path id="DejaVuSans-2e" d="M 684 794 
L 1344 794 
L 1344 0 
L 684 0 
L 684 794 
z
" transform="scale(0.015625)"/>
        <path id="DejaVuSans-32" d="M 1228 531 
L 3431 531 
L 3431 0 
L 469 0 
L 469 531 
Q 828 903 1448 1529 
Q 2069 2156 2228 2338 
Q 2531 2678 2651 2914 
Q 2772 3150 2772 3378 
Q 2772 3750 2511 3984 
Q 2250 4219 1831 4219 
Q 1534 4219 1204 4116 
Q 875 4013 500 3803 
L 500 4441 
Q 881 4594 1212 4672 
Q 1544 4750 1819 4750 
Q 2544 4750 2975 4387 
Q 3406 4025 3406 3419 
Q 3406 3131 3298 2873 
Q 3191 2616 2906 2266 
Q 2828 2175 2409 1742 
Q 1991 1309 1228 531 
z
" transform="scale(0.015625)"/>
        <path id="DejaVuSans-38" d="M 2034 2216 
Q 1584 2216 1326 1975 
Q 1069 1734 1069 1313 
Q 1069 891 1326 650 
Q 1584 409 2034 409 
Q 2484 409 2743 651 
Q 3003 894 3003 1313 
Q 3003 1734 2745 1975 
Q 2488 2216 2034 2216 
z
M 1403 2484 
Q 997 2584 770 2862 
Q 544 3141 544 3541 
Q 544 4100 942 4425 
Q 1341 4750 2034 4750 
Q 2731 4750 3128 4425 
Q 3525 4100 3525 3541 
Q 3525 3141 3298 2862 
Q 3072 2584 2669 2484 
Q 3125 2378 3379 2068 
Q 3634 1759 3634 1313 
Q 3634 634 3220 271 
Q 2806 -91 2034 -91 
Q 1263 -91 848 271 
Q 434 634 434 1313 
Q 434 1759 690 2068 
Q 947 2378 1403 2484 
z
M 1172 3481 
Q 1172 3119 1398 2916 
Q 1625 2713 2034 2713 
Q 2441 2713 2670 2916 
Q 2900 3119 2900 3481 
Q 2900 3844 2670 4047 
Q 2441 4250 2034 4250 
Q 1625 4250 1398 4047 
Q 1172 3844 1172 3481 
z
" transform="scale(0.015625)"/>
        <path id="DejaVuSans-31" d="M 794 531 
L 1825 531 
L 1825 4091 
L 703 3866 
L 703 4441 
L 1819 4666 
L 2450 4666 
L 2450 531 
L 3481 531 
L 3481 0 
L 794 0 
L 794 531 
z
" transform="scale(0.015625)"/>
       </defs>
       <use xlink:href="#DejaVuSans-30"/>
       <use xlink:href="#DejaVuSans-2e" x="63.623047"/>
       <use xlink:href="#DejaVuSans-32" x="95.410156"/>
       <use xlink:href="#DejaVuSans-38" x="159.033203"/>
       <use xlink:href="#DejaVuSans-31" x="222.65625"/>
      </g>
     </g>
    </g>
    <g id="xtick_2">
     <g id="line2d_2">
      <g>
       <use xlink:href="#m387d91d80b" x="177.88265" y="448.56" style="stroke: #000000; stroke-width: 0.8"/>
      </g>
     </g>
     <g id="text_2">
      <!-- 0.500 -->
      <g transform="translate(163.568588 463.158437) scale(0.1 -0.1)">
       <defs>
        <path id="DejaVuSans-35" d="M 691 4666 
L 3169 4666 
L 3169 4134 
L 1269 4134 
L 1269 2991 
Q 1406 3038 1543 3061 
Q 1681 3084 1819 3084 
Q 2600 3084 3056 2656 
Q 3513 2228 3513 1497 
Q 3513 744 3044 326 
Q 2575 -91 1722 -91 
Q 1428 -91 1123 -41 
Q 819 9 494 109 
L 494 744 
Q 775 591 1075 516 
Q 1375 441 1709 441 
Q 2250 441 2565 725 
Q 2881 1009 2881 1497 
Q 2881 1984 2565 2268 
Q 2250 2553 1709 2553 
Q 1456 2553 1204 2497 
Q 953 2441 691 2322 
L 691 4666 
z
" transform="scale(0.015625)"/>
       </defs>
       <use xlink:href="#DejaVuSans-30"/>
       <use xlink:href="#DejaVuSans-2e" x="63.623047"/>
       <use xlink:href="#DejaVuSans-35" x="95.410156"/>
       <use xlink:href="#DejaVuSans-30" x="159.033203"/>
       <use xlink:href="#DejaVuSans-30" x="222.65625"/>
      </g>
     </g>
    </g>
    <g id="xtick_3">
     <g id="line2d_3">
      <g>
       <use xlink:href="#m387d91d80b" x="249.088816" y="448.56" style="stroke: #000000; stroke-width: 0.8"/>
      </g>
     </g>
     <g id="text_3">
      <!-- 0.750 -->
      <g transform="translate(234.774754 463.158437) scale(0.1 -0.1)">
       <defs>
        <path id="DejaVuSans-37" d="M 525 4666 
L 3525 4666 
L 3525 4397 
L 1831 0 
L 1172 0 
L 2766 4134 
L 525 4134 
L 525 4666 
z
" transform="scale(0.015625)"/>
       </defs>
       <use xlink:href="#DejaVuSans-30"/>
       <use xlink:href="#DejaVuSans-2e" x="63.623047"/>
       <use xlink:href="#DejaVuSans-37" x="95.410156"/>
       <use xlink:href="#DejaVuSans-35" x="159.033203"/>
       <use xlink:href="#DejaVuSans-30" x="222.65625"/>
      </g>
     </g>
    </g>
    <g id="xtick_4">
     <g id="line2d_4">
      <g>
       <use xlink:href="#m387d91d80b" x="320.294982" y="448.56" style="stroke: #000000; stroke-width: 0.8"/>
      </g>
     </g>
     <g id="text_4">
      <!-- 1.000 -->
      <g transform="translate(305.98092 463.158437) scale(0.1 -0.1)">
       <use xlink:href="#DejaVuSans-31"/>
       <use xlink:href="#DejaVuSans-2e" x="63.623047"/>
       <use xlink:href="#DejaVuSans-30" x="95.410156"/>
       <use xlink:href="#DejaVuSans-30" x="159.033203"/>
       <use xlink:href="#DejaVuSans-30" x="222.65625"/>
      </g>
     </g>
    </g>
    <g id="xtick_5">
     <g id="line2d_5">
      <g>
       <use xlink:href="#m387d91d80b" x="391.501148" y="448.56" style="stroke: #000000; stroke-width: 0.8"/>
      </g>
     </g>
     <g id="text_5">
      <!-- 1.250 -->
      <g transform="translate(377.187086 463.158437) scale(0.1 -0.1)">
       <use xlink:href="#DejaVuSans-31"/>
       <use xlink:href="#DejaVuSans-2e" x="63.623047"/>
       <use xlink:href="#DejaVuSans-32" x="95.410156"/>
       <use xlink:href="#DejaVuSans-35" x="159.033203"/>
       <use xlink:href="#DejaVuSans-30" x="222.65625"/>
      </g>
     </g>
    </g>
    <g id="xtick_6">
     <g id="line2d_6">
      <g>
       <use xlink:href="#m387d91d80b" x="462.707315" y="448.56" style="stroke: #000000; stroke-width: 0.8"/>
      </g>
     </g>
     <g id="text_6">
      <!-- 1.500 -->
      <g transform="translate(448.393252 463.158437) scale(0.1 -0.1)">
       <use xlink:href="#DejaVuSans-31"/>
       <use xlink:href="#DejaVuSans-2e" x="63.623047"/>
       <use xlink:href="#DejaVuSans-35" x="95.410156"/>
       <use xlink:href="#DejaVuSans-30" x="159.033203"/>
       <use xlink:href="#DejaVuSans-30" x="222.65625"/>
      </g>
     </g>
    </g>
    <g id="xtick_7">
     <g id="line2d_7">
      <g>
       <use xlink:href="#m387d91d80b" x="533.913481" y="448.56" style="stroke: #000000; stroke-width: 0.8"/>
      </g>
     </g>
     <g id="text_7">
      <!-- 1.750 -->
      <g transform="translate(519.599418 463.158437) scale(0.1 -0.1)">
       <use xlink:href="#DejaVuSans-31"/>
       <use xlink:href="#DejaVuSans-2e" x="63.623047"/>
       <use xlink:href="#DejaVuSans-37" x="95.410156"/>
       <use xlink:href="#DejaVuSans-35" x="159.033203"/>
       <use xlink:href="#DejaVuSans-30" x="222.65625"/>
      </g>
     </g>
    </g>
    <g id="xtick_8">
     <g id="line2d_8">
      <g>
       <use xlink:href="#m387d91d80b" x="605.119647" y="448.56" style="stroke: #000000; stroke-width: 0.8"/>
      </g>
     </g>
    </g>
    <g id="xtick_9">
     <g id="line2d_9">
      <g>
       <use xlink:href="#m387d91d80b" x="622.636364" y="448.56" style="stroke: #000000; stroke-width: 0.8"/>
      </g>
     </g>
     <g id="text_8">
      <!-- 2.062 -->
      <g transform="translate(608.322301 463.158437) scale(0.1 -0.1)">
       <defs>
        <path id="DejaVuSans-36" d="M 2113 2584 
Q 1688 2584 1439 2293 
Q 1191 2003 1191 1497 
Q 1191 994 1439 701 
Q 1688 409 2113 409 
Q 2538 409 2786 701 
Q 3034 994 3034 1497 
Q 3034 2003 2786 2293 
Q 2538 2584 2113 2584 
z
M 3366 4563 
L 3366 3988 
Q 3128 4100 2886 4159 
Q 2644 4219 2406 4219 
Q 1781 4219 1451 3797 
Q 1122 3375 1075 2522 
Q 1259 2794 1537 2939 
Q 1816 3084 2150 3084 
Q 2853 3084 3261 2657 
Q 3669 2231 3669 1497 
Q 3669 778 3244 343 
Q 2819 -91 2113 -91 
Q 1303 -91 875 529 
Q 447 1150 447 2328 
Q 447 3434 972 4092 
Q 1497 4750 2381 4750 
Q 2619 4750 2861 4703 
Q 3103 4656 3366 4563 
z
" transform="scale(0.015625)"/>
       </defs>
       <use xlink:href="#DejaVuSans-32"/>
       <use xlink:href="#DejaVuSans-2e" x="63.623047"/>
       <use xlink:href="#DejaVuSans-30" x="95.410156"/>
       <use xlink:href="#DejaVuSans-36" x="159.033203"/>
       <use xlink:href="#DejaVuSans-32" x="222.65625"/>
      </g>
     </g>
    </g>
    <g id="text_9">
     <!-- Mean of methods -->
     <g transform="translate(325.464844 476.836563) scale(0.1 -0.1)">
      <defs>
       <path id="DejaVuSans-4d" d="M 628 4666 
L 1569 4666 
L 2759 1491 
L 3956 4666 
L 4897 4666 
L 4897 0 
L 4281 0 
L 4281 4097 
L 3078 897 
L 2444 897 
L 1241 4097 
L 1241 0 
L 628 0 
L 628 4666 
z
" transform="scale(0.015625)"/>
       <path id="DejaVuSans-65" d="M 3597 1894 
L 3597 1613 
L 953 1613 
Q 991 1019 1311 708 
Q 1631 397 2203 397 
Q 2534 397 2845 478 
Q 3156 559 3463 722 
L 3463 178 
Q 3153 47 2828 -22 
Q 2503 -91 2169 -91 
Q 1331 -91 842 396 
Q 353 884 353 1716 
Q 353 2575 817 3079 
Q 1281 3584 2069 3584 
Q 2775 3584 3186 3129 
Q 3597 2675 3597 1894 
z
M 3022 2063 
Q 3016 2534 2758 2815 
Q 2500 3097 2075 3097 
Q 1594 3097 1305 2825 
Q 1016 2553 972 2059 
L 3022 2063 
z
" transform="scale(0.015625)"/>
       <path id="DejaVuSans-61" d="M 2194 1759 
Q 1497 1759 1228 1600 
Q 959 1441 959 1056 
Q 959 750 1161 570 
Q 1363 391 1709 391 
Q 2188 391 2477 730 
Q 2766 1069 2766 1631 
L 2766 1759 
L 2194 1759 
z
M 3341 1997 
L 3341 0 
L 2766 0 
L 2766 531 
Q 2569 213 2275 61 
Q 1981 -91 1556 -91 
Q 1019 -91 701 211 
Q 384 513 384 1019 
Q 384 1609 779 1909 
Q 1175 2209 1959 2209 
L 2766 2209 
L 2766 2266 
Q 2766 2663 2505 2880 
Q 2244 3097 1772 3097 
Q 1472 3097 1187 3025 
Q 903 2953 641 2809 
L 641 3341 
Q 956 3463 1253 3523 
Q 1550 3584 1831 3584 
Q 2591 3584 2966 3190 
Q 3341 2797 3341 1997 
z
" transform="scale(0.015625)"/>
       <path id="DejaVuSans-6e" d="M 3513 2113 
L 3513 0 
L 2938 0 
L 2938 2094 
Q 2938 2591 2744 2837 
Q 2550 3084 2163 3084 
Q 1697 3084 1428 2787 
Q 1159 2491 1159 1978 
L 1159 0 
L 581 0 
L 581 3500 
L 1159 3500 
L 1159 2956 
Q 1366 3272 1645 3428 
Q 1925 3584 2291 3584 
Q 2894 3584 3203 3211 
Q 3513 2838 3513 2113 
z
" transform="scale(0.015625)"/>
       <path id="DejaVuSans-20" transform="scale(0.015625)"/>
       <path id="DejaVuSans-6f" d="M 1959 3097 
Q 1497 3097 1228 2736 
Q 959 2375 959 1747 
Q 959 1119 1226 758 
Q 1494 397 1959 397 
Q 2419 397 2687 759 
Q 2956 1122 2956 1747 
Q 2956 2369 2687 2733 
Q 2419 3097 1959 3097 
z
M 1959 3584 
Q 2709 3584 3137 3096 
Q 3566 2609 3566 1747 
Q 3566 888 3137 398 
Q 2709 -91 1959 -91 
Q 1206 -91 779 398 
Q 353 888 353 1747 
Q 353 2609 779 3096 
Q 1206 3584 1959 3584 
z
" transform="scale(0.015625)"/>
       <path id="DejaVuSans-66" d="M 2375 4863 
L 2375 4384 
L 1825 4384 
Q 1516 4384 1395 4259 
Q 1275 4134 1275 3809 
L 1275 3500 
L 2222 3500 
L 2222 3053 
L 1275 3053 
L 1275 0 
L 697 0 
L 697 3053 
L 147 3053 
L 147 3500 
L 697 3500 
L 697 3744 
Q 697 4328 969 4595 
Q 1241 4863 1831 4863 
L 2375 4863 
z
" transform="scale(0.015625)"/>
       <path id="DejaVuSans-6d" d="M 3328 2828 
Q 3544 3216 3844 3400 
Q 4144 3584 4550 3584 
Q 5097 3584 5394 3201 
Q 5691 2819 5691 2113 
L 5691 0 
L 5113 0 
L 5113 2094 
Q 5113 2597 4934 2840 
Q 4756 3084 4391 3084 
Q 3944 3084 3684 2787 
Q 3425 2491 3425 1978 
L 3425 0 
L 2847 0 
L 2847 2094 
Q 2847 2600 2669 2842 
Q 2491 3084 2119 3084 
Q 1678 3084 1418 2786 
Q 1159 2488 1159 1978 
L 1159 0 
L 581 0 
L 581 3500 
L 1159 3500 
L 1159 2956 
Q 1356 3278 1631 3431 
Q 1906 3584 2284 3584 
Q 2666 3584 2933 3390 
Q 3200 3197 3328 2828 
z
" transform="scale(0.015625)"/>
       <path id="DejaVuSans-74" d="M 1172 4494 
L 1172 3500 
L 2356 3500 
L 2356 3053 
L 1172 3053 
L 1172 1153 
Q 1172 725 1289 603 
Q 1406 481 1766 481 
L 2356 481 
L 2356 0 
L 1766 0 
Q 1100 0 847 248 
Q 594 497 594 1153 
L 594 3053 
L 172 3053 
L 172 3500 
L 594 3500 
L 594 4494 
L 1172 4494 
z
" transform="scale(0.015625)"/>
       <path id="DejaVuSans-68" d="M 3513 2113 
L 3513 0 
L 2938 0 
L 2938 2094 
Q 2938 2591 2744 2837 
Q 2550 3084 2163 3084 
Q 1697 3084 1428 2787 
Q 1159 2491 1159 1978 
L 1159 0 
L 581 0 
L 581 4863 
L 1159 4863 
L 1159 2956 
Q 1366 3272 1645 3428 
Q 1925 3584 2291 3584 
Q 2894 3584 3203 3211 
Q 3513 2838 3513 2113 
z
" transform="scale(0.015625)"/>
       <path id="DejaVuSans-64" d="M 2906 2969 
L 2906 4863 
L 3481 4863 
L 3481 0 
L 2906 0 
L 2906 525 
Q 2725 213 2448 61 
Q 2172 -91 1784 -91 
Q 1150 -91 751 415 
Q 353 922 353 1747 
Q 353 2572 751 3078 
Q 1150 3584 1784 3584 
Q 2172 3584 2448 3432 
Q 2725 3281 2906 2969 
z
M 947 1747 
Q 947 1113 1208 752 
Q 1469 391 1925 391 
Q 2381 391 2643 752 
Q 2906 1113 2906 1747 
Q 2906 2381 2643 2742 
Q 2381 3103 1925 3103 
Q 1469 3103 1208 2742 
Q 947 2381 947 1747 
z
" transform="scale(0.015625)"/>
       <path id="DejaVuSans-73" d="M 2834 3397 
L 2834 2853 
Q 2591 2978 2328 3040 
Q 2066 3103 1784 3103 
Q 1356 3103 1142 2972 
Q 928 2841 928 2578 
Q 928 2378 1081 2264 
Q 1234 2150 1697 2047 
L 1894 2003 
Q 2506 1872 2764 1633 
Q 3022 1394 3022 966 
Q 3022 478 2636 193 
Q 2250 -91 1575 -91 
Q 1294 -91 989 -36 
Q 684 19 347 128 
L 347 722 
Q 666 556 975 473 
Q 1284 391 1588 391 
Q 1994 391 2212 530 
Q 2431 669 2431 922 
Q 2431 1156 2273 1281 
Q 2116 1406 1581 1522 
L 1381 1569 
Q 847 1681 609 1914 
Q 372 2147 372 2553 
Q 372 3047 722 3315 
Q 1072 3584 1716 3584 
Q 2034 3584 2315 3537 
Q 2597 3491 2834 3397 
z
" transform="scale(0.015625)"/>
      </defs>
      <use xlink:href="#DejaVuSans-4d"/>
      <use xlink:href="#DejaVuSans-65" x="86.279297"/>
      <use xlink:href="#DejaVuSans-61" x="147.802734"/>
      <use xlink:href="#DejaVuSans-6e" x="209.082031"/>
      <use xlink:href="#DejaVuSans-20" x="272.460938"/>
      <use xlink:href="#DejaVuSans-6f" x="304.248047"/>
      <use xlink:href="#DejaVuSans-66" x="365.429688"/>
      <use xlink:href="#DejaVuSans-20" x="400.634766"/>
      <use xlink:href="#DejaVuSans-6d" x="432.421875"/>
      <use xlink:href="#DejaVuSans-65" x="529.833984"/>
      <use xlink:href="#DejaVuSans-74" x="591.357422"/>
      <use xlink:href="#DejaVuSans-68" x="630.566406"/>
      <use xlink:href="#DejaVuSans-6f" x="693.945312"/>
      <use xlink:href="#DejaVuSans-64" x="755.126953"/>
      <use xlink:href="#DejaVuSans-73" x="818.603516"/>
     </g>
    </g>
   </g>
   <g id="matplotlib.axis_2">
    <g id="ytick_1">
     <g id="line2d_10">
      <defs>
       <path id="me4f4001741" d="M 0 0 
L -3.5 0 
" style="stroke: #000000; stroke-width: 0.8"/>
      </defs>
      <g>
       <use xlink:href="#me4f4001741" x="90" y="430.92" style="stroke: #000000; stroke-width: 0.8"/>
      </g>
     </g>
     <g id="text_10">
      <!-- −0.061 -->
      <g transform="translate(45.992188 434.719219) scale(0.1 -0.1)">
       <defs>
        <path id="DejaVuSans-2212" d="M 678 2272 
L 4684 2272 
L 4684 1741 
L 678 1741 
L 678 2272 
z
" transform="scale(0.015625)"/>
       </defs>
       <use xlink:href="#DejaVuSans-2212"/>
       <use xlink:href="#DejaVuSans-30" x="83.789062"/>
       <use xlink:href="#DejaVuSans-2e" x="147.412109"/>
       <use xlink:href="#DejaVuSans-30" x="179.199219"/>
       <use xlink:href="#DejaVuSans-36" x="242.822266"/>
       <use xlink:href="#DejaVuSans-31" x="306.445312"/>
      </g>
     </g>
    </g>
    <g id="ytick_2">
     <g id="line2d_11">
      <g>
       <use xlink:href="#me4f4001741" x="90" y="426.51" style="stroke: #000000; stroke-width: 0.8"/>
      </g>
     </g>
    </g>
    <g id="ytick_3">
     <g id="line2d_12">
      <g>
       <use xlink:href="#me4f4001741" x="90" y="382.41" style="stroke: #000000; stroke-width: 0.8"/>
      </g>
     </g>
     <g id="text_11">
      <!-- −0.050 -->
      <g transform="translate(45.992188 386.209219) scale(0.1 -0.1)">
       <use xlink:href="#DejaVuSans-2212"/>
       <use xlink:href="#DejaVuSans-30" x="83.789062"/>
       <use xlink:href="#DejaVuSans-2e" x="147.412109"/>
       <use xlink:href="#DejaVuSans-30" x="179.199219"/>
       <use xlink:href="#DejaVuSans-35" x="242.822266"/>
       <use xlink:href="#DejaVuSans-30" x="306.445312"/>
      </g>
     </g>
    </g>
    <g id="ytick_4">
     <g id="line2d_13">
      <g>
       <use xlink:href="#me4f4001741" x="90" y="338.31" style="stroke: #000000; stroke-width: 0.8"/>
      </g>
     </g>
     <g id="text_12">
      <!-- −0.040 -->
      <g transform="translate(45.992188 342.109219) scale(0.1 -0.1)">
       <defs>
        <path id="DejaVuSans-34" d="M 2419 4116 
L 825 1625 
L 2419 1625 
L 2419 4116 
z
M 2253 4666 
L 3047 4666 
L 3047 1625 
L 3713 1625 
L 3713 1100 
L 3047 1100 
L 3047 0 
L 2419 0 
L 2419 1100 
L 313 1100 
L 313 1709 
L 2253 4666 
z
" transform="scale(0.015625)"/>
       </defs>
       <use xlink:href="#DejaVuSans-2212"/>
       <use xlink:href="#DejaVuSans-30" x="83.789062"/>
       <use xlink:href="#DejaVuSans-2e" x="147.412109"/>
       <use xlink:href="#DejaVuSans-30" x="179.199219"/>
       <use xlink:href="#DejaVuSans-34" x="242.822266"/>
       <use xlink:href="#DejaVuSans-30" x="306.445312"/>
      </g>
     </g>
    </g>
    <g id="ytick_5">
     <g id="line2d_14">
      <g>
       <use xlink:href="#me4f4001741" x="90" y="294.21" style="stroke: #000000; stroke-width: 0.8"/>
      </g>
     </g>
     <g id="text_13">
      <!-- −0.030 -->
      <g transform="translate(45.992188 298.009219) scale(0.1 -0.1)">
       <defs>
        <path id="DejaVuSans-33" d="M 2597 2516 
Q 3050 2419 3304 2112 
Q 3559 1806 3559 1356 
Q 3559 666 3084 287 
Q 2609 -91 1734 -91 
Q 1441 -91 1130 -33 
Q 819 25 488 141 
L 488 750 
Q 750 597 1062 519 
Q 1375 441 1716 441 
Q 2309 441 2620 675 
Q 2931 909 2931 1356 
Q 2931 1769 2642 2001 
Q 2353 2234 1838 2234 
L 1294 2234 
L 1294 2753 
L 1863 2753 
Q 2328 2753 2575 2939 
Q 2822 3125 2822 3475 
Q 2822 3834 2567 4026 
Q 2313 4219 1838 4219 
Q 1578 4219 1281 4162 
Q 984 4106 628 3988 
L 628 4550 
Q 988 4650 1302 4700 
Q 1616 4750 1894 4750 
Q 2613 4750 3031 4423 
Q 3450 4097 3450 3541 
Q 3450 3153 3228 2886 
Q 3006 2619 2597 2516 
z
" transform="scale(0.015625)"/>
       </defs>
       <use xlink:href="#DejaVuSans-2212"/>
       <use xlink:href="#DejaVuSans-30" x="83.789062"/>
       <use xlink:href="#DejaVuSans-2e" x="147.412109"/>
       <use xlink:href="#DejaVuSans-30" x="179.199219"/>
       <use xlink:href="#DejaVuSans-33" x="242.822266"/>
       <use xlink:href="#DejaVuSans-30" x="306.445312"/>
      </g>
     </g>
    </g>
    <g id="ytick_6">
     <g id="line2d_15">
      <g>
       <use xlink:href="#me4f4001741" x="90" y="250.11" style="stroke: #000000; stroke-width: 0.8"/>
      </g>
     </g>
     <g id="text_14">
      <!-- −0.020 -->
      <g transform="translate(45.992188 253.909219) scale(0.1 -0.1)">
       <use xlink:href="#DejaVuSans-2212"/>
       <use xlink:href="#DejaVuSans-30" x="83.789062"/>
       <use xlink:href="#DejaVuSans-2e" x="147.412109"/>
       <use xlink:href="#DejaVuSans-30" x="179.199219"/>
       <use xlink:href="#DejaVuSans-32" x="242.822266"/>
       <use xlink:href="#DejaVuSans-30" x="306.445312"/>
      </g>
     </g>
    </g>
    <g id="ytick_7">
     <g id="line2d_16">
      <g>
       <use xlink:href="#me4f4001741" x="90" y="206.01" style="stroke: #000000; stroke-width: 0.8"/>
      </g>
     </g>
     <g id="text_15">
      <!-- −0.010 -->
      <g transform="translate(45.992188 209.809219) scale(0.1 -0.1)">
       <use xlink:href="#DejaVuSans-2212"/>
       <use xlink:href="#DejaVuSans-30" x="83.789062"/>
       <use xlink:href="#DejaVuSans-2e" x="147.412109"/>
       <use xlink:href="#DejaVuSans-30" x="179.199219"/>
       <use xlink:href="#DejaVuSans-31" x="242.822266"/>
       <use xlink:href="#DejaVuSans-30" x="306.445312"/>
      </g>
     </g>
    </g>
    <g id="ytick_8">
     <g id="line2d_17">
      <g>
       <use xlink:href="#me4f4001741" x="90" y="161.91" style="stroke: #000000; stroke-width: 0.8"/>
      </g>
     </g>
     <g id="text_16">
      <!-- 0.000 -->
      <g transform="translate(54.371875 165.709219) scale(0.1 -0.1)">
       <use xlink:href="#DejaVuSans-30"/>
       <use xlink:href="#DejaVuSans-2e" x="63.623047"/>
       <use xlink:href="#DejaVuSans-30" x="95.410156"/>
       <use xlink:href="#DejaVuSans-30" x="159.033203"/>
       <use xlink:href="#DejaVuSans-30" x="222.65625"/>
      </g>
     </g>
    </g>
    <g id="ytick_9">
     <g id="line2d_18">
      <g>
       <use xlink:href="#me4f4001741" x="90" y="117.81" style="stroke: #000000; stroke-width: 0.8"/>
      </g>
     </g>
     <g id="text_17">
      <!-- 0.010 -->
      <g transform="translate(54.371875 121.609219) scale(0.1 -0.1)">
       <use xlink:href="#DejaVuSans-30"/>
       <use xlink:href="#DejaVuSans-2e" x="63.623047"/>
       <use xlink:href="#DejaVuSans-30" x="95.410156"/>
       <use xlink:href="#DejaVuSans-31" x="159.033203"/>
       <use xlink:href="#DejaVuSans-30" x="222.65625"/>
      </g>
     </g>
    </g>
    <g id="ytick_10">
     <g id="line2d_19">
      <g>
       <use xlink:href="#me4f4001741" x="90" y="78.12" style="stroke: #000000; stroke-width: 0.8"/>
      </g>
     </g>
     <g id="text_18">
      <!-- 0.019 -->
      <g transform="translate(54.371875 81.919219) scale(0.1 -0.1)">
       <defs>
        <path id="DejaVuSans-39" d="M 703 97 
L 703 672 
Q 941 559 1184 500 
Q 1428 441 1663 441 
Q 2288 441 2617 861 
Q 2947 1281 2994 2138 
Q 2813 1869 2534 1725 
Q 2256 1581 1919 1581 
Q 1219 1581 811 2004 
Q 403 2428 403 3163 
Q 403 3881 828 4315 
Q 1253 4750 1959 4750 
Q 2769 4750 3195 4129 
Q 3622 3509 3622 2328 
Q 3622 1225 3098 567 
Q 2575 -91 1691 -91 
Q 1453 -91 1209 -44 
Q 966 3 703 97 
z
M 1959 2075 
Q 2384 2075 2632 2365 
Q 2881 2656 2881 3163 
Q 2881 3666 2632 3958 
Q 2384 4250 1959 4250 
Q 1534 4250 1286 3958 
Q 1038 3666 1038 3163 
Q 1038 2656 1286 2365 
Q 1534 2075 1959 2075 
z
" transform="scale(0.015625)"/>
       </defs>
       <use xlink:href="#DejaVuSans-30"/>
       <use xlink:href="#DejaVuSans-2e" x="63.623047"/>
       <use xlink:href="#DejaVuSans-30" x="95.410156"/>
       <use xlink:href="#DejaVuSans-31" x="159.033203"/>
       <use xlink:href="#DejaVuSans-39" x="222.65625"/>
      </g>
     </g>
    </g>
    <g id="text_19">
     <!-- Difference between methods -->
     <g transform="translate(39.9125 327.084063) rotate(-90) scale(0.1 -0.1)">
      <defs>
       <path id="DejaVuSans-44" d="M 1259 4147 
L 1259 519 
L 2022 519 
Q 2988 519 3436 956 
Q 3884 1394 3884 2338 
Q 3884 3275 3436 3711 
Q 2988 4147 2022 4147 
L 1259 4147 
z
M 628 4666 
L 1925 4666 
Q 3281 4666 3915 4102 
Q 4550 3538 4550 2338 
Q 4550 1131 3912 565 
Q 3275 0 1925 0 
L 628 0 
L 628 4666 
z
" transform="scale(0.015625)"/>
       <path id="DejaVuSans-69" d="M 603 3500 
L 1178 3500 
L 1178 0 
L 603 0 
L 603 3500 
z
M 603 4863 
L 1178 4863 
L 1178 4134 
L 603 4134 
L 603 4863 
z
" transform="scale(0.015625)"/>
       <path id="DejaVuSans-72" d="M 2631 2963 
Q 2534 3019 2420 3045 
Q 2306 3072 2169 3072 
Q 1681 3072 1420 2755 
Q 1159 2438 1159 1844 
L 1159 0 
L 581 0 
L 581 3500 
L 1159 3500 
L 1159 2956 
Q 1341 3275 1631 3429 
Q 1922 3584 2338 3584 
Q 2397 3584 2469 3576 
Q 2541 3569 2628 3553 
L 2631 2963 
z
" transform="scale(0.015625)"/>
       <path id="DejaVuSans-63" d="M 3122 3366 
L 3122 2828 
Q 2878 2963 2633 3030 
Q 2388 3097 2138 3097 
Q 1578 3097 1268 2742 
Q 959 2388 959 1747 
Q 959 1106 1268 751 
Q 1578 397 2138 397 
Q 2388 397 2633 464 
Q 2878 531 3122 666 
L 3122 134 
Q 2881 22 2623 -34 
Q 2366 -91 2075 -91 
Q 1284 -91 818 406 
Q 353 903 353 1747 
Q 353 2603 823 3093 
Q 1294 3584 2113 3584 
Q 2378 3584 2631 3529 
Q 2884 3475 3122 3366 
z
" transform="scale(0.015625)"/>
       <path id="DejaVuSans-62" d="M 3116 1747 
Q 3116 2381 2855 2742 
Q 2594 3103 2138 3103 
Q 1681 3103 1420 2742 
Q 1159 2381 1159 1747 
Q 1159 1113 1420 752 
Q 1681 391 2138 391 
Q 2594 391 2855 752 
Q 3116 1113 3116 1747 
z
M 1159 2969 
Q 1341 3281 1617 3432 
Q 1894 3584 2278 3584 
Q 2916 3584 3314 3078 
Q 3713 2572 3713 1747 
Q 3713 922 3314 415 
Q 2916 -91 2278 -91 
Q 1894 -91 1617 61 
Q 1341 213 1159 525 
L 1159 0 
L 581 0 
L 581 4863 
L 1159 4863 
L 1159 2969 
z
" transform="scale(0.015625)"/>
       <path id="DejaVuSans-77" d="M 269 3500 
L 844 3500 
L 1563 769 
L 2278 3500 
L 2956 3500 
L 3675 769 
L 4391 3500 
L 4966 3500 
L 4050 0 
L 3372 0 
L 2619 2869 
L 1863 0 
L 1184 0 
L 269 3500 
z
" transform="scale(0.015625)"/>
      </defs>
      <use xlink:href="#DejaVuSans-44"/>
      <use xlink:href="#DejaVuSans-69" x="77.001953"/>
      <use xlink:href="#DejaVuSans-66" x="104.785156"/>
      <use xlink:href="#DejaVuSans-66" x="139.990234"/>
      <use xlink:href="#DejaVuSans-65" x="175.195312"/>
      <use xlink:href="#DejaVuSans-72" x="236.71875"/>
      <use xlink:href="#DejaVuSans-65" x="275.582031"/>
      <use xlink:href="#DejaVuSans-6e" x="337.105469"/>
      <use xlink:href="#DejaVuSans-63" x="400.484375"/>
      <use xlink:href="#DejaVuSans-65" x="455.464844"/>
      <use xlink:href="#DejaVuSans-20" x="516.988281"/>
      <use xlink:href="#DejaVuSans-62" x="548.775391"/>
      <use xlink:href="#DejaVuSans-65" x="612.251953"/>
      <use xlink:href="#DejaVuSans-74" x="673.775391"/>
      <use xlink:href="#DejaVuSans-77" x="712.984375"/>
      <use xlink:href="#DejaVuSans-65" x="794.771484"/>
      <use xlink:href="#DejaVuSans-65" x="856.294922"/>
      <use xlink:href="#DejaVuSans-6e" x="917.818359"/>
      <use xlink:href="#DejaVuSans-20" x="981.197266"/>
      <use xlink:href="#DejaVuSans-6d" x="1012.984375"/>
      <use xlink:href="#DejaVuSans-65" x="1110.396484"/>
      <use xlink:href="#DejaVuSans-74" x="1171.919922"/>
      <use xlink:href="#DejaVuSans-68" x="1211.128906"/>
      <use xlink:href="#DejaVuSans-6f" x="1274.507812"/>
      <use xlink:href="#DejaVuSans-64" x="1335.689453"/>
      <use xlink:href="#DejaVuSans-73" x="1399.166016"/>
     </g>
    </g>
   </g>
   <g id="line2d_20">
    <path d="M 90 233.721486 
L 648 233.721486 
" clip-path="url(#pd71f1e6bc9)" style="fill: none; stroke-dasharray: 5.55,2.4; stroke-dashoffset: 0; stroke: #6495ed; stroke-width: 1.5"/>
   </g>
   <g id="line2d_21">
    <path d="M 90 115.568849 
L 648 115.568849 
" clip-path="url(#pd71f1e6bc9)" style="fill: none; stroke-dasharray: 5.55,2.4; stroke-dashoffset: 0; stroke: #ff7f50; stroke-width: 1.5"/>
   </g>
   <g id="line2d_22">
    <path d="M 90 351.874124 
L 648 351.874124 
" clip-path="url(#pd71f1e6bc9)" style="fill: none; stroke-dasharray: 5.55,2.4; stroke-dashoffset: 0; stroke: #ff7f50; stroke-width: 1.5"/>
   </g>
   <g id="patch_6">
    <path d="M 90 430.92 
L 90 78.12 
" style="fill: none; stroke: #000000; stroke-width: 0.8; stroke-linejoin: miter; stroke-linecap: square"/>
   </g>
   <g id="patch_7">
    <path d="M 115.363636 448.56 
L 622.636364 448.56 
" style="fill: none; stroke: #000000; stroke-width: 0.8; stroke-linejoin: miter; stroke-linecap: square"/>
   </g>
   <g id="text_20">
    <!-- Mean -->
    <g transform="translate(609.593125 228.09722) scale(0.1 -0.1)">
     <use xlink:href="#DejaVuSans-4d"/>
     <use xlink:href="#DejaVuSans-65" x="86.279297"/>
     <use xlink:href="#DejaVuSans-61" x="147.802734"/>
     <use xlink:href="#DejaVuSans-6e" x="209.082031"/>
    </g>
   </g>
   <g id="text_21">
    <!-- -0.02 -->
    <g transform="translate(610.966563 244.864503) scale(0.1 -0.1)">
     <defs>
      <path id="DejaVuSans-2d" d="M 313 2009 
L 1997 2009 
L 1997 1497 
L 313 1497 
L 313 2009 
z
" transform="scale(0.015625)"/>
     </defs>
     <use xlink:href="#DejaVuSans-2d"/>
     <use xlink:href="#DejaVuSans-30" x="36.083984"/>
     <use xlink:href="#DejaVuSans-2e" x="99.707031"/>
     <use xlink:href="#DejaVuSans-30" x="131.494141"/>
     <use xlink:href="#DejaVuSans-32" x="195.117188"/>
    </g>
   </g>
   <g id="text_22">
    <!-- +1.96 SD -->
    <g transform="translate(588.968125 109.944583) scale(0.1 -0.1)">
     <defs>
      <path id="DejaVuSans-2b" d="M 2944 4013 
L 2944 2272 
L 4684 2272 
L 4684 1741 
L 2944 1741 
L 2944 0 
L 2419 0 
L 2419 1741 
L 678 1741 
L 678 2272 
L 2419 2272 
L 2419 4013 
L 2944 4013 
z
" transform="scale(0.015625)"/>
      <path id="DejaVuSans-53" d="M 3425 4513 
L 3425 3897 
Q 3066 4069 2747 4153 
Q 2428 4238 2131 4238 
Q 1616 4238 1336 4038 
Q 1056 3838 1056 3469 
Q 1056 3159 1242 3001 
Q 1428 2844 1947 2747 
L 2328 2669 
Q 3034 2534 3370 2195 
Q 3706 1856 3706 1288 
Q 3706 609 3251 259 
Q 2797 -91 1919 -91 
Q 1588 -91 1214 -16 
Q 841 59 441 206 
L 441 856 
Q 825 641 1194 531 
Q 1563 422 1919 422 
Q 2459 422 2753 634 
Q 3047 847 3047 1241 
Q 3047 1584 2836 1778 
Q 2625 1972 2144 2069 
L 1759 2144 
Q 1053 2284 737 2584 
Q 422 2884 422 3419 
Q 422 4038 858 4394 
Q 1294 4750 2059 4750 
Q 2388 4750 2728 4690 
Q 3069 4631 3425 4513 
z
" transform="scale(0.015625)"/>
     </defs>
     <use xlink:href="#DejaVuSans-2b"/>
     <use xlink:href="#DejaVuSans-31" x="83.789062"/>
     <use xlink:href="#DejaVuSans-2e" x="147.412109"/>
     <use xlink:href="#DejaVuSans-39" x="179.199219"/>
     <use xlink:href="#DejaVuSans-36" x="242.822266"/>
     <use xlink:href="#DejaVuSans-20" x="306.445312"/>
     <use xlink:href="#DejaVuSans-53" x="338.232422"/>
     <use xlink:href="#DejaVuSans-44" x="401.708984"/>
    </g>
   </g>
   <g id="text_23">
    <!-- 0.01 -->
    <g transform="translate(614.574375 126.711866) scale(0.1 -0.1)">
     <use xlink:href="#DejaVuSans-30"/>
     <use xlink:href="#DejaVuSans-2e" x="63.623047"/>
     <use xlink:href="#DejaVuSans-30" x="95.410156"/>
     <use xlink:href="#DejaVuSans-31" x="159.033203"/>
    </g>
   </g>
   <g id="text_24">
    <!-- -1.96 SD -->
    <g transform="translate(593.74 363.01714) scale(0.1 -0.1)">
     <use xlink:href="#DejaVuSans-2d"/>
     <use xlink:href="#DejaVuSans-31" x="36.083984"/>
     <use xlink:href="#DejaVuSans-2e" x="99.707031"/>
     <use xlink:href="#DejaVuSans-39" x="131.494141"/>
     <use xlink:href="#DejaVuSans-36" x="195.117188"/>
     <use xlink:href="#DejaVuSans-20" x="258.740234"/>
     <use xlink:href="#DejaVuSans-53" x="290.527344"/>
     <use xlink:href="#DejaVuSans-44" x="354.003906"/>
    </g>
   </g>
   <g id="text_25">
    <!-- -0.04 -->
    <g transform="translate(610.966563 346.249857) scale(0.1 -0.1)">
     <use xlink:href="#DejaVuSans-2d"/>
     <use xlink:href="#DejaVuSans-30" x="36.083984"/>
     <use xlink:href="#DejaVuSans-2e" x="99.707031"/>
     <use xlink:href="#DejaVuSans-30" x="131.494141"/>
     <use xlink:href="#DejaVuSans-34" x="195.117188"/>
    </g>
   </g>
  </g>
 </g>
 <defs>
  <clipPath id="pd71f1e6bc9">
   <rect x="90" y="60.48" width="558" height="388.08"/>
  </clipPath>
 </defs>
</svg>
